<svg class="animated" id="freepik_stories-schizophrenia" xmlns="http://www.w3.org/2000/svg" viewBox="0 0 500 500" version="1.1" xmlns:xlink="http://www.w3.org/1999/xlink" xmlns:svgjs="http://svgjs.com/svgjs"><style>svg#freepik_stories-schizophrenia:not(.animated) .animable {opacity: 0;}svg#freepik_stories-schizophrenia.animated #freepik--background-complete--inject-77 {animation: 6s Infinite  linear floating;animation-delay: 1s;}svg#freepik_stories-schizophrenia.animated #freepik--Ghost--inject-77 {animation: 1.5s Infinite  linear floating;animation-delay: 0s;}            @keyframes floating {                0% {                    opacity: 1;                    transform: translateY(0px);                }                50% {                    transform: translateY(-10px);                }                100% {                    opacity: 1;                    transform: translateY(0px);                }            }        .animator-hidden { display: none; }</style><g id="freepik--background-complete--inject-77" class="animable animator-hidden" style="transform-origin: 250px 193.754px;"><g id="elhmu9pqv1mvq"><rect x="419.79" y="209.24" width="26.48" height="11.19" style="fill: rgb(235, 235, 235); transform-origin: 433.03px 214.835px; transform: rotate(180deg);" class="animable" id="el3wrsnsrajju"></rect></g><g id="elh55sl52pz7q"><rect x="434.56" y="223.35" width="26.48" height="11.19" style="fill: rgb(235, 235, 235); transform-origin: 447.8px 228.945px; transform: rotate(180deg);" class="animable" id="el6w6firjh1hx"></rect></g><g id="elz34e506h8ep"><rect x="405.02" y="223.35" width="26.48" height="11.19" style="fill: rgb(235, 235, 235); transform-origin: 418.26px 228.945px; transform: rotate(180deg);" class="animable" id="elndatnvftm5e"></rect></g><g id="elop2b7he7cra"><rect x="53.73" y="223.35" width="26.48" height="11.19" style="fill: rgb(235, 235, 235); transform-origin: 66.97px 228.945px; transform: rotate(180deg);" class="animable" id="elt4gvug7a2h"></rect></g><g id="el4ssoh0hq5bs"><rect x="53.73" y="64.92" width="26.48" height="11.19" style="fill: rgb(235, 235, 235); transform-origin: 66.97px 70.515px; transform: rotate(180deg);" class="animable" id="eloo2927cb4zn"></rect></g><g id="elh83xmhvf1p8"><rect x="38.96" y="79.02" width="26.48" height="11.19" style="fill: rgb(235, 235, 235); transform-origin: 52.2px 84.615px; transform: rotate(180deg);" class="animable" id="elugnyrs9mje"></rect></g><g id="el5go36boehmx"><rect x="434.56" y="64.93" width="26.48" height="11.19" style="fill: rgb(235, 235, 235); transform-origin: 447.8px 70.525px; transform: rotate(180deg);" class="animable" id="el1xv880ghrea"></rect></g><rect x="291.41" y="316" width="26.48" height="11.19" style="fill: rgb(235, 235, 235); transform-origin: 304.65px 321.595px;" id="elqatve027ea" class="animable"></rect><rect x="276.64" y="301.89" width="26.48" height="11.19" style="fill: rgb(235, 235, 235); transform-origin: 289.88px 307.485px;" id="elo1dq71gaji" class="animable"></rect><path d="M393.66,294.79s-16.59-21.36-27.12-21.36c-5.62,0-32.21,13.06-38.4,11.69s-11.64-36.5-14.36-42.37c-2.93-6.32-15.29-21.95-32.28-21.16-11.24.51-23.21,16.5-25.46,28.21S264,294,276,301.64s29.14,10.22,41.54,11.24,45.92-27,50.65-30.7S393.66,294.79,393.66,294.79Z" style="fill: rgb(219, 219, 219); transform-origin: 324.693px 267.234px;" id="elffqy90sa26c" class="animable"></path><path d="M293.75,260c-4.88-.91-8.43-4.26-9.25-10.11,0-.08-.08-.07-.11,0a.09.09,0,0,0-.13.08c-.43,5.5,2.44,11.19,7.05,13,.1,0,.16-.1.06-.17a15.27,15.27,0,0,1-6.44-9.28c1.32,4.13,4.84,7.33,8.81,6.8A.14.14,0,0,0,293.75,260Z" style="fill: rgb(255, 255, 255); transform-origin: 289.061px 256.402px;" id="el8s1jrhzbqrb" class="animable"></path><path d="M290.61,241.58c-3.78.35-6.89,3.68-6.38,9.19.49,5.25,4.3,7.72,7.89,7.18,4.58-.69,6.18-5.37,5.68-9.33S294.08,241.26,290.61,241.58Z" style="fill: rgb(255, 255, 255); transform-origin: 291.031px 249.791px;" id="elkqhbawrcve" class="animable"></path><path d="M268.9,251.73c0-.06-.07,0-.07,0s0,.23,0,.34l0-.18c0-.15-.2-.13-.2,0,0,4.6-.95,8.12-3.58,11.52-.08.11.05.28.15.19a13.3,13.3,0,0,0,3.72-7.89,19.57,19.57,0,0,1-2.11,9.83c-.09.18.15.33.26.2C270,262.19,269.94,256.31,268.9,251.73Z" style="fill: rgb(255, 255, 255); transform-origin: 267.288px 258.746px;" id="elldrkfh7alsq" class="animable"></path><path d="M264.17,244.75c-2.43.22-4.32,3.44-3.81,8.95.48,5.25,3,7.84,5.31,7.42,2.93-.54,3.81-5.16,3.35-9.12S266.39,244.54,264.17,244.75Z" style="fill: rgb(255, 255, 255); transform-origin: 264.706px 252.953px;" id="elme3k7oqe64d" class="animable"></path><path d="M277.32,260.63a1.66,1.66,0,0,1-1.91.91c-1.1-.39-1.33-1.72-1.42-2.85s-.09-2.19-.27-3.29c-.14-.85-1.31-3.37-.09-4.41.72-.62,1.59-.08,2.17.57C277.51,253.45,278.78,258.27,277.32,260.63Z" style="fill: rgb(255, 255, 255); transform-origin: 275.52px 256.153px;" id="elxhl8tsczzyn" class="animable"></path><path d="M340.52,153.64c1.44-4.7-5.15-39.61-5.25-55.51s17.66-35.19,30.82-37.53,37.79,10.34,39.26,22.85,3.06,57.6-4.11,66.4-56.93,42.44-59.63,46.75-4.86,23.93-.5,28.49,25.26,14.68,25.26,14.68S338,237,332.67,231s-17.25-30.72-12.7-41.45S337.84,162.35,340.52,153.64Z" style="fill: rgb(219, 219, 219); transform-origin: 362.782px 150.044px;" id="el8q1hpds2ix5" class="animable"></path><path d="M366.16,104.24c4.88-2.43,7.63-7,6.75-13.45,0-.09.06-.1.11-.05a.1.1,0,0,1,.16,0c2.1,5.68.76,12.55-3.58,15.8-.09.07-.2-.06-.12-.16a16.71,16.71,0,0,0,4-11.73c-.16,4.76-2.93,9.19-7.28,9.81C366.11,104.52,366,104.3,366.16,104.24Z" style="fill: rgb(255, 255, 255); transform-origin: 370.116px 98.6299px;" id="elmbolfeyt0jb" class="animable"></path><path d="M364,83.89c4.11-.77,8.39,1.83,9.49,7.8,1,5.69-2.24,9.44-6.19,9.94-5,.64-8.13-3.83-8.79-8.17S360.22,84.59,364,83.89Z" style="fill: rgb(255, 255, 255); transform-origin: 366.037px 92.7248px;" id="el5hqaxn8ev8n" class="animable"></path><path d="M390,88.12c0-.06.08-.05.09,0l.09.37c0-.07,0-.13,0-.2s.17-.2.22,0c1.32,4.87,3.42,8.3,7.22,11.1.12.09,0,.32-.11.25a14.65,14.65,0,0,1-6.28-7.22c1,3.64,2.33,6.83,5.16,9.76a.17.17,0,0,1-.21.27C391.94,99.51,390.23,93.28,390,88.12Z" style="fill: rgb(255, 255, 255); transform-origin: 393.835px 95.282px;" id="elwk3xkuewfsc" class="animable"></path><path d="M392.87,79.34c2.64-.49,5.6,2.34,6.7,8.32,1.06,5.69-.85,9.18-3.4,9.42-3.26.31-5.56-4.31-6.26-8.64S390.46,79.79,392.87,79.34Z" style="fill: rgb(255, 255, 255); transform-origin: 394.793px 88.1902px;" id="el23ejkxje3pz" class="animable"></path><path d="M383.72,100.05a1.83,1.83,0,0,0,2.29.39c1-.74.89-2.22.65-3.44s-.56-2.34-.7-3.56c-.11-.93.38-3.94-1.22-4.69-.94-.43-1.7.4-2.13,1.25C381.37,92.51,381.46,98,383.72,100.05Z" style="fill: rgb(255, 255, 255); transform-origin: 384.318px 94.6569px;" id="elwnzxsh5cczf" class="animable"></path></g><g id="freepik--Shadow--inject-77" class="animable" style="transform-origin: 250px 424.19px;"><ellipse cx="250" cy="424.19" rx="205.35" ry="27.26" style="fill: rgb(235, 235, 235); transform-origin: 250px 424.19px;" id="el9wgr6ivh3uh" class="animable"></ellipse></g><g id="freepik--Floor--inject-77" class="animable animator-hidden" style="transform-origin: 250px 345.51px;"><polygon points="39.79 345.51 92.34 345.26 144.89 345.18 250 345.01 355.11 345.18 407.66 345.26 460.21 345.51 407.66 345.75 355.11 345.84 250 346.01 144.89 345.84 92.34 345.75 39.79 345.51" style="fill: rgb(38, 50, 56); transform-origin: 250px 345.51px;" id="elmkich9l0oul" class="animable"></polygon></g><g id="freepik--Plant--inject-77" class="animable animator-hidden" style="transform-origin: 412.5px 233.755px;"><path d="M409.57,173.2s-24.19-3.39-18.53-32.59C391,140.61,418.06,146.68,409.57,173.2Z" style="fill: #7E57C2; transform-origin: 400.7px 156.905px;" id="elh426myzybm" class="animable"></path><g id="elqlyxrrxt47"><path d="M409.57,173.2s-24.19-3.39-18.53-32.59C391,140.61,418.06,146.68,409.57,173.2Z" style="opacity: 0.1; transform-origin: 400.7px 156.905px;" class="animable" id="elassqu5sy8v"></path></g><path d="M408.35,167.1c-.47-1.47-1-2.92-1.65-4.35,0-.18-.05-.37-.06-.55,0-.4-.07-.8-.1-1.21-.07-.87-.12-1.74-.18-2.61-.1-1.74-.21-3.49-.24-5.24a.07.07,0,1,0-.14,0c0,1.74-.05,3.49,0,5.24,0,.87.09,1.74.14,2.61,0,.2,0,.39.05.58a52.39,52.39,0,0,0-4.85-8.29c-.84-1.16-1.71-2.28-2.65-3.35s-2-2.16-3-3.25c-.06-.07-.16,0-.1.11a42.75,42.75,0,0,1,4.66,6.2c.74,1.11,1.43,2.25,2.09,3.41l-.22-.09-.87-.35-2-.74-3.89-1.45c-.08,0-.13.1-.05.14,1.28.51,2.55,1.05,3.83,1.6l1.87.8c.31.14.63.27.94.39a2.59,2.59,0,0,0,.64.23c.49.88,1,1.75,1.42,2.65a62.8,62.8,0,0,1,3,7c0,.17.11.33.17.5a13.78,13.78,0,0,0-2-.95l-2.5-1.15c-1.7-.78-3.39-1.57-5-2.48a.07.07,0,1,0-.07.13c1.66.9,3.29,1.87,5,2.77.83.46,1.67.89,2.52,1.31a7.89,7.89,0,0,0,2.28.91,28.73,28.73,0,0,1,1.58,6.86c.27,3.3.24,6.63.32,9.94,0,0,.08,0,.09,0,.24-3,.37-6,.39-9A26.4,26.4,0,0,0,408.35,167.1Z" style="fill: rgb(38, 50, 56); transform-origin: 402.51px 165.536px;" id="elbmx329wcsr" class="animable"></path><path d="M404.62,149.93a29.58,29.58,0,0,0-.24,5.15,0,0,0,0,0,.08,0c.09-1.71.11-3.41.31-5.11C404.78,149.88,404.63,149.84,404.62,149.93Z" style="fill: rgb(38, 50, 56); transform-origin: 404.563px 152.48px;" id="elvwtc2d96wkg" class="animable"></path><path d="M397.71,151.39a18.65,18.65,0,0,1-3.11-1.52c-.08-.06-.15.08-.07.13a12.1,12.1,0,0,0,3.14,1.5C397.73,151.51,397.77,151.42,397.71,151.39Z" style="fill: rgb(38, 50, 56); transform-origin: 396.117px 150.678px;" id="el0kip4uked538" class="animable"></path><path d="M410.34,219.55c0-2.67-.07-5.34-.1-8-.05-8.87-.12-17.75-.28-26.62q-.19-10.57-.49-21.14a.13.13,0,0,0-.07-.09c0-1.92,0-3.85,0-5.77,0,0-.05-.08-.11-.07s-.12,0-.12.07l0,5.78s-.06.05-.06.09c-.35,12.54-.67,25.08-.74,37.62,0,2.55,0,5.1,0,7.65q-.13,12.27-.09,24.54c0,1.3,0,2.6,0,3.9,0,7.49.08,15,.08,22.45,0,.4.44.6.92.62s1.12-.19,1.12-.65c0-8.25.06-16.51.06-24.76C410.36,230,410.38,224.75,410.34,219.55Z" style="fill: rgb(38, 50, 56); transform-origin: 409.365px 209.22px;" id="el9govq6nm927" class="animable"></path><path d="M400.24,211.43s-11.63-8.62-22.67-2.79-12.78,28.27-12.78,28.27,16.22,2.32,26.43-7.4C401.06,220.15,400.24,211.43,400.24,211.43Z" style="fill: #7E57C2; transform-origin: 382.523px 221.884px;" id="elw2s5peczuo" class="animable"></path><path d="M403.41,212a14,14,0,0,0-6.74-.88,9.61,9.61,0,0,0-1.42-.13l-1.64-.13c-1.13-.09-2.26-.15-3.39-.24-2.3-.17-4.6-.31-6.89-.54-.08,0-.1.13,0,.15,2.27.29,4.53.61,6.8.84,1.17.12,2.34.24,3.51.32l.85.08c-.35.08-.69.16-1,.26a28.27,28.27,0,0,0-5.27,2.14c-.92.17-1.83.42-2.73.63-1.44.34-2.87.71-4.3,1.09-2.83.74-5.62,1.57-8.42,2.39-.1,0-.05.16,0,.14,2.8-.69,5.62-1.32,8.42-2,1.37-.32,2.73-.64,4.09-1l1.07-.24a34.13,34.13,0,0,0-8.27,7.19,45,45,0,0,0-5.74,9.06c0,.08.07.16.12.08a43.87,43.87,0,0,1,7-9.13c-.05.16-.11.31-.16.47l-.64,2.05c-.43,1.37-.87,2.74-1.28,4.12,0,.09.11.12.15,0,.49-1.33.95-2.66,1.42-4l.69-2,.35-1c0-.11.08-.21.11-.32a40.33,40.33,0,0,1,4.13-3.51,30.94,30.94,0,0,1,6.17-3.54c0,.2-.07.4-.12.59-.11.53-.23,1.06-.34,1.59-.23,1.11-.44,2.21-.65,3.31-.44,2.26-.71,4.53-1.14,6.79,0,.09.13.13.15,0,.52-2.26,1.19-4.49,1.7-6.76.25-1.13.5-2.27.74-3.41.11-.53.22-1.06.32-1.59.06-.3.13-.59.17-.89.21-.09.41-.18.63-.26,3.05-1.13,6.42-1.95,9.68-1.33a9.53,9.53,0,0,1,7,5.61c.11.26.5.1.45-.16A9,9,0,0,0,403.41,212Z" style="fill: rgb(38, 50, 56); transform-origin: 390.667px 220.662px;" id="elrmb3vx0e66" class="animable"></path><path d="M385.6,221.55c-.33,1.47-.65,2.95-1,4.42a33.55,33.55,0,0,0-.81,4.3c0,.06.08.06.09,0a31.6,31.6,0,0,0,1-4.33c.29-1.45.57-2.91.86-4.36C385.76,221.49,385.62,221.46,385.6,221.55Z" style="fill: rgb(38, 50, 56); transform-origin: 384.766px 225.905px;" id="elq6h35uo9gzi" class="animable"></path><path d="M374.35,225.3c-1.48.75-2.92,1.6-4.46,2.22a.07.07,0,1,0,.06.13,46.63,46.63,0,0,0,4.44-2.3S374.39,225.28,374.35,225.3Z" style="fill: rgb(38, 50, 56); transform-origin: 372.119px 226.477px;" id="el54x56aekqcm" class="animable"></path><path d="M402.86,195.6s-14.22.91-20.83-8.47-5.13-22.76-5.13-22.76,14.93,1.81,20.86,8.55S402.86,195.6,402.86,195.6Z" style="fill: #7E57C2; transform-origin: 389.829px 179.997px;" id="ellhgulsd7m1d" class="animable"></path><path d="M409.53,209.63c-.49-1.52-1.1-3-1.68-4.52s-1.14-2.85-1.77-4.26a85.46,85.46,0,0,0-4.26-8.37c-1-1.73-2.08-3.41-3.18-5.06,0-.25-.08-.5-.11-.76-.07-.44-.13-.88-.2-1.32-.14-.9-.3-1.8-.45-2.69-.33-2-.73-3.92-1.05-5.88,0-.1-.16-.09-.14,0,.28,1.94.48,3.89.75,5.83.13,1,.26,1.91.4,2.86.06.35.11.69.17,1a101.72,101.72,0,0,0-7-9.13c-.34-.39-.69-.77-1-1.16a2.15,2.15,0,0,0-.13-.32l-.31-.82c-.21-.56-.41-1.13-.61-1.69-.4-1.12-.76-2.24-1.06-3.38a.07.07,0,1,0-.14,0q.42,1.76.93,3.48c.16.56.35,1.11.54,1.66,0,.09.07.18.1.27-1.81-2-3.71-3.89-5.62-5.78a.08.08,0,0,0-.11.11,101.23,101.23,0,0,1,10.08,12.34,10.12,10.12,0,0,0-1.05-.27c-1.1-.21-2.2-.36-3.31-.5-2.32-.3-4.63-.59-6.93-1-.09,0-.13.13,0,.15,2.21.43,4.39.93,6.58,1.43,1,.24,2.07.44,3.1.64a21.07,21.07,0,0,1,2.5.72l.7,1c1,1.52,2,3.07,3,4.63l-1.45-.28q-1.65-.33-3.3-.6c-2.17-.35-4.34-.73-6.49-1.22-.09,0-.12.12,0,.15,2.17.51,4.33,1.1,6.48,1.68,1.05.27,2.1.53,3.15.76l1.58.34a3.18,3.18,0,0,0,.64.11q3.11,5.06,5.83,10.33,1.19,2.32,2.29,4.69c.76,1.61,1.42,3.26,2.12,4.9C409.13,210.12,409.65,210,409.53,209.63Z" style="fill: rgb(38, 50, 56); transform-origin: 395.927px 189.772px;" id="el8hacqwv4gpl" class="animable"></path><path d="M395,177c-.27-1.35-.56-2.7-.86-4,0-.1-.16-.05-.14,0,.27,1.33.52,2.67.77,4s.43,2.69.8,4c0,0,.05,0,.05,0A29.78,29.78,0,0,0,395,177Z" style="fill: rgb(38, 50, 56); transform-origin: 394.809px 176.971px;" id="eljbwr9mal7uk" class="animable"></path><path d="M386.68,176.56a21.47,21.47,0,0,0-2-.86l-1.08-.42-.55-.22a2.69,2.69,0,0,1-.6-.27c-.1-.08-.17.11-.07.13a2.31,2.31,0,0,1,.61.25l.54.24,1,.46a19.09,19.09,0,0,0,2.1.83C386.71,176.73,386.76,176.6,386.68,176.56Z" style="fill: rgb(38, 50, 56); transform-origin: 384.526px 175.737px;" id="elu6kmcod6k5e" class="animable"></path><path d="M417.41,184.42s8.61-16.07,21.7-18.56,21.1,11,21.1,11-9.55,12.19-21.56,14.32S417.41,184.42,417.41,184.42Z" style="fill: #7E57C2; transform-origin: 438.81px 178.531px;" id="ely9qsqf4m46r" class="animable"></path><path d="M447.88,173.06a35.36,35.36,0,0,0-10.27.13l.59-.32,2.9-1.49a67.15,67.15,0,0,1,6.15-3,.08.08,0,1,0-.06-.14c-2.05,1-4.17,1.75-6.23,2.7-1,.47-2,1-3,1.49-.65.35-1.36.67-2,1.08a36.29,36.29,0,0,0-8.32,2.76l1.64-1.78c1.22-1.33,2.42-2.74,3.76-4,.07-.07,0-.17-.11-.11-1.37,1.25-2.82,2.4-4.14,3.69-.65.63-1.27,1.28-1.87,1.95-.3.33-.6.68-.88,1a34.49,34.49,0,0,0-17.55,23.7.07.07,0,1,0,.14,0,39.51,39.51,0,0,1,9.62-16.28,37.81,37.81,0,0,1,17.54-10.15,38.52,38.52,0,0,1,12.1-1.1A.13.13,0,0,0,447.88,173.06Z" style="fill: rgb(38, 50, 56); transform-origin: 428.196px 184.505px;" id="elqiyfenaaumc" class="animable"></path><g id="el33fajixkk2v"><path d="M460.21,176.84s-9.55,12.2-21.56,14.32c-9.17,1.63-16.71-3.15-19.77-5.5l-.66-1.09s6.2-5.22,17.92-8.24S460.21,176.84,460.21,176.84Z" style="opacity: 0.1; transform-origin: 439.215px 183.3px;" class="animable" id="el0c0vffri6d"></path></g><path d="M440.28,167.33a33.23,33.23,0,0,0-2.91,1.92,18.42,18.42,0,0,0-2.52,2.31c-.07.08,0,.17.11.11.87-.76,1.74-1.51,2.64-2.23a28.3,28.3,0,0,1,2.76-2C440.44,167.41,440.36,167.28,440.28,167.33Z" style="fill: rgb(38, 50, 56); transform-origin: 437.608px 169.504px;" id="elop7z7cwk9wn" class="animable"></path><path d="M447.46,170.05c-.48.21-1,.38-1.46.58l-1.46.61c-.1,0-.06.21,0,.17l1.46-.6c.49-.19,1-.42,1.45-.61C447.59,170.16,447.55,170,447.46,170.05Z" style="fill: rgb(38, 50, 56); transform-origin: 446.01px 170.728px;" id="eld4eubf8qd7w" class="animable"></path><path d="M415.69,204.65S418,220.6,430,226.17s26.61,0,26.61,0S450.84,191.68,415.69,204.65Z" style="fill: #7E57C2; transform-origin: 436.15px 215.189px;" id="elo7rtda31bwo" class="animable"></path><path d="M448.33,215.8c-1.11-.12-2.21-.31-3.3-.51l-1.61-.31-.84-.17c-.33-.3-.64-.6-1-.89a47.73,47.73,0,0,0-7.33-5.32,41.31,41.31,0,0,0-4.39-2.26h.22l3.95.17c2.63.13,5.26.18,7.89.35.1,0,.09-.14,0-.14-2.64-.18-5.27-.47-7.9-.7l-3.84-.34-2-.17-.51-.06c-.68-.25-1.37-.49-2.07-.71a18.66,18.66,0,0,0-10.15-.56c-3,.77-6,2.75-6.81,5.93a.1.1,0,0,0,.19.07c1.12-2.65,4.07-4,6.74-4.54a16,16,0,0,1,5.43-.11,12.68,12.68,0,0,0,.6,2.41c.33,1.12.66,2.25,1,3.37.68,2.23,1.43,4.45,2.09,6.7a.07.07,0,1,0,.14-.05c-.55-2.23-1-4.49-1.56-6.73-.27-1.1-.55-2.2-.82-3.3a18.17,18.17,0,0,0-.6-2.27c1.05.19,2.09.44,3.11.73a46.55,46.55,0,0,1,5.43,2c.18,1.13.43,2.26.69,3.38.33,1.41.7,2.8,1.14,4.18,0,.08.15,0,.14,0l-.06-.26h0c-.27-1.3-.56-2.6-.83-3.9-.22-1.05-.43-2.11-.65-3.16a48.44,48.44,0,0,1,4.37,2.22,9.42,9.42,0,0,0,.15.95c.09.55.19,1.09.29,1.64.22,1.23.47,2.45.76,3.67A59.31,59.31,0,0,0,438.5,224s0,.06,0,.09l.06.08a.07.07,0,0,0,.12-.07c-.55-2.36-1.18-4.71-1.7-7.08-.26-1.18-.52-2.37-.76-3.56-.12-.59-.23-1.18-.34-1.78,0-.17-.06-.35-.08-.53a50.49,50.49,0,0,1,4.67,3.11,51.3,51.3,0,0,1,7.14,6.52c.09.1.26,0,.18-.14-.92-1.2-1.83-2.38-2.86-3.48-.6-.65-1.23-1.28-1.87-1.89l.2,0c.56.09,1.13.18,1.69.25,1.11.15,2.22.26,3.33.39C448.39,216,448.42,215.81,448.33,215.8Z" style="fill: rgb(38, 50, 56); transform-origin: 428.509px 213.962px;" id="elhyll9j6r7g8" class="animable"></path><path d="M439.9,221.21h0c0-.14,0-.28-.07-.42s-.12-.34-.14-.52h0c-.25-1.07-.46-2.14-.65-3.22,0-.07-.14-.05-.13,0a12.93,12.93,0,0,0,.91,4.16c0,.05.09,0,.08,0Z" style="fill: rgb(38, 50, 56); transform-origin: 439.405px 219.118px;" id="eluv628eh6hz" class="animable"></path><path d="M429.87,221a.1.1,0,0,0-.07-.07c-.34-1.41-.66-2.82-1-4.24l-.45-2.24c-.07-.41-.15-.81-.22-1.22a3.25,3.25,0,0,0-.26-1,.07.07,0,0,0-.13,0,6.83,6.83,0,0,0,.3,2.14c.14.78.3,1.55.47,2.33.34,1.57.74,3.14,1.18,4.68,0,.09.17.07.16,0S429.88,221.07,429.87,221Z" style="fill: rgb(38, 50, 56); transform-origin: 428.805px 216.813px;" id="el2v5txkwzf9a" class="animable"></path><path d="M447.24,211.21c-2.19-.3-4.38-.62-6.58-.88-.09,0-.13.13,0,.14,2.18.32,4.38.59,6.57.88C447.29,211.36,447.33,211.22,447.24,211.21Z" style="fill: rgb(38, 50, 56); transform-origin: 443.935px 210.84px;" id="el0a1suo9gzff3" class="animable"></path><path d="M409.55,167.26S402.22,135.07,436.8,122C436.8,122,446.38,164.41,409.55,167.26Z" style="fill: #7E57C2; transform-origin: 423.411px 144.63px;" id="elobuslulymsa" class="animable"></path><path d="M417,149c.13-.08.25-.16.37-.22l1.95-1.1,4-2.24c2.64-1.48,5.25-3,7.91-4.46.08,0,0-.17-.08-.12-2.66,1.45-5.37,2.8-8.05,4.22l-4,2.09-1.61.86c1.15-2.19,2.38-4.34,3.74-6.4a98.45,98.45,0,0,1,5.85-7.95.12.12,0,0,0-.18-.17,54.67,54.67,0,0,0-8,9.81c0-.12,0-.23,0-.34,0-.8.06-1.6.07-2.4,0-1.57-.05-3.15,0-4.72,0-.09-.15-.09-.15,0-.07,1.54-.25,3.09-.34,4.63,0,.77-.08,1.54-.1,2.32,0,.41,0,.89,0,1.35-.71,1.13-1.39,2.28-2,3.44a61.3,61.3,0,0,0-3.09,6.49c0-.81-.08-1.61-.13-2.41-.1-1.76-.32-3.51-.39-5.28a.08.08,0,0,0-.15,0c0,1.76-.05,3.52,0,5.29,0,.88.05,1.76.11,2.64l.06,1a58.16,58.16,0,0,0-2.61,8.85,93.33,93.33,0,0,0-1.29,9.72s0,0,0,0a52.31,52.31,0,0,1,1.83-8.66c.43-1.52.88-3,1.37-4.53,1.44-.68,2.82-1.53,4.21-2.3s2.89-1.58,4.34-2.37c2.88-1.58,5.76-3.19,8.74-4.59.08,0,0-.17-.08-.13-3,1.37-6.05,2.67-9,4.15-1.48.74-2.93,1.54-4.36,2.35-1.2.67-2.44,1.35-3.59,2.13.34-1,.69-2,1.07-3A86.86,86.86,0,0,1,417,149Z" style="fill: rgb(38, 50, 56); transform-origin: 420.077px 153.686px;" id="el9wevk96fhug" class="animable"></path><path d="M414.1,141.64a.08.08,0,0,0-.15,0c.13,1.83.19,3.67.38,5.5,0,.1.17.1.17,0C414.43,145.3,414.24,143.48,414.1,141.64Z" style="fill: rgb(38, 50, 56); transform-origin: 414.225px 144.401px;" id="elimzthzu00nc" class="animable"></path><path d="M430.68,147.79c-2.16.87-4.35,1.7-6.5,2.6-.06,0,0,.12,0,.1,2.19-.82,4.34-1.71,6.51-2.56C430.81,147.9,430.77,147.75,430.68,147.79Z" style="fill: rgb(38, 50, 56); transform-origin: 427.459px 149.138px;" id="elz1suuvwf2w" class="animable"></path><path d="M434,132.94a58.53,58.53,0,0,0-6.15,3.3.09.09,0,0,0,.1.16c2-1.17,4-2.3,6.13-3.33C434.13,133,434.05,132.91,434,132.94Z" style="fill: rgb(38, 50, 56); transform-origin: 430.951px 134.674px;" id="elng2tzggywfq" class="animable"></path><rect x="383.57" y="236.86" width="49.87" height="52.57" style="fill: rgb(55, 71, 79); transform-origin: 408.505px 263.145px;" id="elemfmjpve9ol" class="animable"></rect><rect x="380.14" y="255.46" width="2.55" height="90.05" style="fill: rgb(38, 50, 56); transform-origin: 381.415px 300.485px;" id="elklamfqf94a" class="animable"></rect><rect x="434.06" y="255.46" width="2.55" height="90.05" style="fill: rgb(38, 50, 56); transform-origin: 435.335px 300.485px;" id="elp8ya3ghrpc" class="animable"></rect><rect x="408.46" y="255.46" width="2.55" height="90.05" style="fill: rgb(38, 50, 56); transform-origin: 409.735px 300.485px;" id="elg9fsr95gqlh" class="animable"></rect><rect x="381.42" y="286.06" width="53.92" height="7.28" style="fill: rgb(38, 50, 56); transform-origin: 408.38px 289.7px;" id="el07ap7faao76l" class="animable"></rect></g><g id="freepik--Ghost--inject-77" class="animable" style="transform-origin: 208.105px 243.373px;"><path d="M153.39,430.34s-26.74-20.28-34.75-32.74c-5.52-8.58-12.88-54-7.69-72.26s50.8-73.57,56-80.84,20.45-18.45,23.15-19.56,30.93,36,35.42,34.1c16.63-7,58.19-56.12,66.34-62.1s.56-24.78-4.6-21.43c-5.87,3.82-56.12,63.33-59,60.28-1.72-1.8-12.43-20.66-9.65-35.61,1.94-10.38,29.91-46,35.23-53.07,3.7-4.93,22.73-39.11,22.83-49.3S269.82,70,260.51,61.61s-39.91-5.32-52.21,0-71,23-108,65C65.2,166.41,47.68,240.29,46.79,257.32s-1.45,73.15,10.08,98.74S85.52,402.2,98.62,409C118.06,419,153.39,430.34,153.39,430.34Z" style="fill: rgb(38, 50, 56); transform-origin: 170.906px 243.373px;" id="el3sxyuunosm1" class="animable"></path><path d="M95,161.46q.84,10.46,2,20.87c.4,3.47.83,6.93,1.34,10.39a91.21,91.21,0,0,0,2,10.27,12.71,12.71,0,0,0,.9,2.44c.19.35.47.79.83.76a4.38,4.38,0,0,0,1.17-.48,39.08,39.08,0,0,0,4.33-2.92c2.79-2.09,5.5-4.3,8.21-6.5l8.11-6.64c1.36-1.1,2.72-2.19,4.12-3.25.7-.53,1.39-1.06,2.12-1.55a4.82,4.82,0,0,0,1-.75,6.08,6.08,0,0,0,.7-1.06,76.84,76.84,0,0,0,3.78-9.73c1.11-3.31,2.16-6.64,3.22-10s2.14-6.65,3.32-10a49.85,49.85,0,0,1,2-4.88,8.58,8.58,0,0,1,.67-1.17,1.93,1.93,0,0,1,.53-.54c.23-.14.39-.2.6-.31l2.3-1.24c6.14-3.33,12.27-6.69,18.58-9.72,1.58-.75,3.18-1.48,4.8-2.15.81-.33,1.64-.64,2.48-.91a9.26,9.26,0,0,1,2.63-.54,29.93,29.93,0,0,1,5.28.4c1.73.26,3.46.58,5.17.93,3.43.7,6.83,1.53,10.22,2.41q2.53.66,5.06,1.39c.84.25,1.68.49,2.52.78s1.62.69,2.43,1c1.59.74,3.17,1.52,4.69,2.42.75.45,1.5.92,2.22,1.45a10.69,10.69,0,0,1,1.87,1.94,46,46,0,0,1,3,4.32,23.72,23.72,0,0,1,1.3,2.33,3.36,3.36,0,0,1,.24.7.62.62,0,0,1,0,.35c-.11.22-.12.16-.19.25a1,1,0,0,1-.4.24,2.2,2.2,0,0,1-1.52-.15,14.84,14.84,0,0,1-4.3-3.18,18.74,18.74,0,0,1-1.77-2,5.17,5.17,0,0,0-1.95-1.45,35.14,35.14,0,0,0-4.82-1.88c-.83-.26-1.67-.5-2.5-.68s-1.72-.23-2.56-.37c-6.92-1-13.81-2.32-20.71-3.16l-.63-.05h-.31c-.07,0-.28,0-.19,0,.49-.43-.08-.82.11-.62l.12,0,.28.11.61.19c.83.26,1.67.5,2.51.73l5,1.42c1.68.47,3.37,1,5,1.49.83.27,1.67.54,2.5.85a11.33,11.33,0,0,1,2.45,1.15,35.5,35.5,0,0,1,4,3.48c1.26,1.23,2.48,2.48,3.69,3.75a99.07,99.07,0,0,1,6.88,8,18.94,18.94,0,0,1,2.34,4.81,34.53,34.53,0,0,1,1.42,5.11,11.85,11.85,0,0,1,.18,1.35,4.3,4.3,0,0,1,0,.72,2.2,2.2,0,0,1-.07.41.88.88,0,0,1-.39.54.75.75,0,0,1-.71,0,1.45,1.45,0,0,1-.37-.22,3.62,3.62,0,0,1-.54-.48,12.17,12.17,0,0,1-.9-1,44.44,44.44,0,0,1-3-4.38,21.25,21.25,0,0,1-1.28-2.37,2.9,2.9,0,0,0-.68-.88c-.3-.3-.61-.6-.93-.89-1.28-1.17-2.62-2.29-3.95-3.4-2.69-2.23-5.42-4.4-8.15-6.59-.35-.28-.66-.52-1-.85.06,0,0,0-.13,0l-.29-.1-.61-.18c-.83-.23-1.68-.44-2.52-.65l-5.09-1.21c-3.4-.78-6.82-1.55-10.22-2.24l-.3,0c-.34.76.4-1.05.28-.89l.11.06.58.27,1.19.51,2.41,1,4.85,2,4.84,2,2.42,1c.41.18.8.33,1.23.55a13.45,13.45,0,0,1,1.15.73c2.9,2,5.71,4.07,8.46,6.24.69.55,1.37,1.1,2,1.68.34.29.67.58,1,.89a3.72,3.72,0,0,1,.91,1.17c.69,1.62,1.33,3.24,2,4.88s1.24,3.27,1.8,4.94c.28.83.55,1.67.78,2.53a10.94,10.94,0,0,1,.28,1.34,2.23,2.23,0,0,1,0,.82.74.74,0,0,1-.24.37.61.61,0,0,1-.46.13A1.17,1.17,0,0,1,210,180a10.54,10.54,0,0,1-2.07-1.82c-.6-.64-1.18-1.31-1.74-2a50,50,0,0,1-3.15-4.24,16.24,16.24,0,0,1-1.33-2.35l-.12-.34-.06-.18,0-.1a1.69,1.69,0,0,0-.28-.44,6.57,6.57,0,0,0-.89-.85,31.69,31.69,0,0,0-4.35-2.75c-1.53-.83-3.09-1.61-4.66-2.36L189,161.46a17.77,17.77,0,0,0-2.43-.75c-3.37-.87-6.77-1.67-10.17-2.46l-2.56-.56c-.41-.09-.87-.19-1.24-.25,0-.29-.18.62.19-.67-.05,0,0,0,.06,0l.27.14.59.27,4.76,2.19c1.59.74,3.17,1.51,4.71,2.36a23.41,23.41,0,0,1,2.27,1.39,5.3,5.3,0,0,1,1.06.92,1.87,1.87,0,0,1,.37.67l.25.6a104.42,104.42,0,0,1,4,9.73,5.37,5.37,0,0,1,.25,1.38,5,5,0,0,1-.32,1.39c-.29.84-.62,1.65-1,2.46-.69,1.62-1.44,3.21-2.27,4.76a19.33,19.33,0,0,1-1.38,2.29,2.92,2.92,0,0,1-.52.55.62.62,0,0,1-.27.13.5.5,0,0,1-.46-.1.88.88,0,0,1-.25-.48,6.2,6.2,0,0,1-.06-1.41,48,48,0,0,1,.7-5.23c.15-.86.32-1.72.5-2.58l.14-.65c0-.12,0-.22.06-.27a2.62,2.62,0,0,0,0-.27,5.47,5.47,0,0,0-.3-1.19,23.82,23.82,0,0,0-2.3-4.6,12.59,12.59,0,0,0-1.54-2,1.47,1.47,0,0,0-1-.49c-.42-.08-.85-.13-1.27-.18-1.73-.19-3.47-.29-5.21-.36-.87,0-1.74-.05-2.6-.05-.44,0-.87,0-1.29,0l-.28,0c-.06,0-.06,0-.14.1l-.47.43c-1.25,1.21-2.47,2.46-3.7,3.7l-7.31,7.5c-4.85,5-9.69,10.07-14.46,15.17-1.18,1.28-2.38,2.56-3.52,3.87s-2.4,2.56-3.63,3.8q-3.74,3.69-7.59,7.25c-5.13,4.75-10.41,9.34-15.91,13.67-2.75,2.15-5.56,4.24-8.5,6.14a46.72,46.72,0,0,1-4.55,2.63,13.77,13.77,0,0,1-5,1.61,8.15,8.15,0,0,1-4.88-1.88A26.64,26.64,0,0,1,87,228.6a68.43,68.43,0,0,1-6.23-8.43,162.84,162.84,0,0,1-10-18.41A163.42,163.42,0,0,0,80.85,220.1a69.15,69.15,0,0,0,6.27,8.37A25.58,25.58,0,0,0,90.94,232a7.83,7.83,0,0,0,4.73,1.8,13.44,13.44,0,0,0,4.88-1.61,46.19,46.19,0,0,0,4.51-2.64c2.91-1.91,5.7-4,8.44-6.18,5.46-4.34,10.68-9,15.81-13.73,2.55-2.37,5.08-4.79,7.55-7.25,1.23-1.24,2.47-2.47,3.6-3.78s2.34-2.6,3.53-3.89c4.76-5.11,9.59-10.17,14.43-15.2l7.3-7.53c1.22-1.25,2.44-2.49,3.71-3.72.15-.15.32-.3.49-.45a.86.86,0,0,1,.42-.24l.36,0c.45,0,.89-.05,1.33-.05.88,0,1.76,0,2.64.05,1.75.06,3.5.16,5.25.35.44,0,.87.1,1.32.18a2.68,2.68,0,0,1,.71.21,3,3,0,0,1,.6.46,12.81,12.81,0,0,1,1.64,2.14,24.74,24.74,0,0,1,2.38,4.74,6.35,6.35,0,0,1,.34,1.35c0,.12,0,.25,0,.39a1.79,1.79,0,0,1-.08.36l-.13.64c-.18.85-.34,1.7-.49,2.56a45.4,45.4,0,0,0-.68,5.15,5.28,5.28,0,0,0,0,1.21c0,.08.07.15,0,.1a.24.24,0,0,0-.16,0l0,0a2.19,2.19,0,0,0,.37-.41,18.16,18.16,0,0,0,1.32-2.19c.81-1.53,1.55-3.11,2.23-4.71.33-.8.66-1.6.93-2.41a4.5,4.5,0,0,0,.28-1.16,4.86,4.86,0,0,0-.22-1.18c-1-3.28-2.61-6.43-4-9.64l-.26-.61a1.22,1.22,0,0,0-.25-.47,5.11,5.11,0,0,0-.92-.78,21.14,21.14,0,0,0-2.2-1.34c-1.52-.83-3.09-1.59-4.66-2.33l-4.77-2.17-.6-.28-.31-.16a1.17,1.17,0,0,1-.22-.14c.32-1.41.4-.4.43-.7.5.08.89.17,1.33.26l2.56.57c3.41.77,6.82,1.57,10.21,2.44a16.81,16.81,0,0,1,2.57.8l2.38,1.1c1.58.75,3.15,1.53,4.7,2.37a33.12,33.12,0,0,1,4.49,2.83,8.24,8.24,0,0,1,1,1,3.08,3.08,0,0,1,.41.66l.08.21,0,.13c0,.09.06.19.1.28a15.18,15.18,0,0,0,1.26,2.2,48.27,48.27,0,0,0,3.1,4.16c.56.67,1.12,1.32,1.71,1.95a9.91,9.91,0,0,0,1.85,1.64.35.35,0,0,0,.13.06.21.21,0,0,0-.15.06c-.08.07-.08.09-.08.09a1.59,1.59,0,0,0,0-.47,9.31,9.31,0,0,0-.26-1.23c-.23-.83-.49-1.65-.77-2.47-.56-1.65-1.17-3.28-1.8-4.9s-1.28-3.25-2-4.84a2.69,2.69,0,0,0-.71-.87c-.3-.3-.63-.58-.95-.86-.66-.57-1.33-1.11-2-1.65-2.74-2.15-5.55-4.23-8.42-6.19-.35-.23-.73-.49-1.05-.67s-.78-.34-1.17-.51l-2.42-1-4.84-2-4.85-2-2.42-1-1.22-.52-.61-.28-.18-.09c-.29.08.59-1.76.37-1l.35.05c3.45.69,6.84,1.48,10.25,2.26l5.11,1.22c.85.21,1.69.43,2.54.67l.65.19.33.12a1.08,1.08,0,0,1,.45.25c.28.24.66.54,1,.8,2.73,2.19,5.46,4.37,8.15,6.61,1.34,1.13,2.68,2.25,4,3.45.32.29.64.6,1,.92a3.76,3.76,0,0,1,.88,1.19,21.44,21.44,0,0,0,1.21,2.24,42.27,42.27,0,0,0,2.9,4.28c.27.34.54.66.83,1a4,4,0,0,0,.44.39l.18.11c.05,0,.06,0-.08,0s-.05.06,0,0a1.2,1.2,0,0,0,0-.23,3.94,3.94,0,0,0,0-.59,11,11,0,0,0-.17-1.25,35,35,0,0,0-1.36-5,18.4,18.4,0,0,0-2.22-4.59,97.3,97.3,0,0,0-6.8-7.89c-1.19-1.27-2.41-2.52-3.65-3.73a33.28,33.28,0,0,0-3.88-3.39,10.38,10.38,0,0,0-2.28-1.07q-1.22-.45-2.46-.84c-1.66-.53-3.33-1-5-1.5l-5-1.43c-.84-.24-1.68-.47-2.53-.74l-.63-.2-.33-.13-.18-.08c.13.16-.65-.35,0-.83a1.11,1.11,0,0,1,.29,0h.52l.67.06c7,.86,13.82,2.19,20.73,3.2.88.14,1.69.21,2.62.38s1.72.45,2.56.71a35,35,0,0,1,4.93,1.94,5.84,5.84,0,0,1,2.2,1.66,16.13,16.13,0,0,0,1.69,1.92,14.59,14.59,0,0,0,4.06,3,1.71,1.71,0,0,0,1,.14.51.51,0,0,0,.16-.09s.09-.11,0,0,0,0,0,0a2.45,2.45,0,0,0-.19-.53,20.69,20.69,0,0,0-1.25-2.25,45.11,45.11,0,0,0-3-4.26,10.06,10.06,0,0,0-1.74-1.82,22.48,22.48,0,0,0-2.17-1.42,48.07,48.07,0,0,0-4.62-2.4c-.78-.35-1.6-.72-2.37-1s-1.65-.52-2.48-.77c-1.68-.48-3.36-1-5-1.39-3.38-.89-6.77-1.72-10.18-2.43-1.71-.35-3.42-.67-5.14-.93a28.11,28.11,0,0,0-5.16-.4,8.61,8.61,0,0,0-2.48.5c-.82.26-1.63.57-2.44.89-1.61.66-3.19,1.38-4.77,2.13-6.3,3-12.43,6.34-18.58,9.67L146.14,147c-.18.09-.43.2-.57.29a1.45,1.45,0,0,0-.37.4,8.91,8.91,0,0,0-.64,1.09,49.77,49.77,0,0,0-2,4.83c-1.18,3.28-2.25,6.6-3.34,9.92s-2.15,6.65-3.28,10c-.56,1.65-1.14,3.3-1.76,4.94a42,42,0,0,1-2.1,4.83,6.2,6.2,0,0,1-.74,1.12,1.91,1.91,0,0,1-.54.45c-.18.12-.37.23-.55.36-.72.48-1.42,1-2.11,1.52-1.39,1.05-2.76,2.14-4.13,3.23l-8.13,6.6c-2.72,2.2-5.44,4.39-8.25,6.48a40.53,40.53,0,0,1-4.37,2.92,5.17,5.17,0,0,1-1.24.49.77.77,0,0,1-.66-.3,3.53,3.53,0,0,1-.38-.57,13.79,13.79,0,0,1-.9-2.47,92.63,92.63,0,0,1-1.93-10.31c-.49-3.46-.91-6.93-1.29-10.4Q95.76,171.91,95,161.46Z" style="fill: rgb(255, 255, 255); transform-origin: 145.768px 182.929px;" id="elkz16d4o13mb" class="animable"></path><path d="M287.28,175.51c4.27-3.7,20.37-10.4,24-12.22s26.66-.44,29.69.47,18.82,7.63,20,10.2,9.22,13.53,8.86,15.52-2.73,12-3.4,12.25c-1.1.36-2.78-7-1.4-11.81.35-1.2-5.18-9.24-7-10.84-1.44-1.29-12.77-4.79-13.77-5s14,8.57,14.73,10.37,4.16,10.83,4.6,12.67.46,13.53-.7,13.83-4.92-8.33-5.11-12.33c0-.87-3.69-9.13-5.91-10.82s-14.66-7.39-14.83-6.92,14,9.75,15,10.93A121.29,121.29,0,0,1,358.67,204c.44,1.25,1.33,13.4.18,13.64s-6.42-10.4-7-12.88c-.54-2.32-6.88-9.37-8.23-10S329.09,190,327,190.93s-5.37,4.36-4.67,5.85,11.41,5.44,13.1,5.66,10-1.15,13.3,1.91c1.47,1.38-6.55,2.1-8.9,3.21s-14.24.29-16.87.23-29.4-11.5-31.06-10.85S287.28,175.51,287.28,175.51Z" style="fill: rgb(38, 50, 56); transform-origin: 328.561px 190.021px;" id="eleffdud6ambe" class="animable"></path><g id="elm9imvxk0dx9"><path d="M227.57,108.48c-4.76,2-14.12-4.33-13.31-12.15.63-6.07,7-11.24,13.52-8.42C235.09,91.06,236.76,104.56,227.57,108.48Z" style="fill: rgb(255, 255, 255); opacity: 0.1; transform-origin: 224.043px 97.986px;" class="animable" id="el31dxkcplh2d"></path></g><path d="M229,107c-4.18,1.78-12.42-3.81-11.71-10.7.55-5.33,6.13-9.87,11.89-7.39C235.56,91.71,237,103.58,229,107Z" style="fill: rgb(255, 255, 255); transform-origin: 225.87px 97.7739px;" id="el3fqin7rcw0p" class="animable"></path><g id="el0imvqswnwhfl"><path d="M240.24,118.59c-1.29,4.8,5.6,11.39,12.62,8.52,5.45-2.22,9.4-9.3,6.07-14.36C255.2,107.09,242.72,109.31,240.24,118.59Z" style="fill: rgb(255, 255, 255); opacity: 0.1; transform-origin: 250.118px 118.735px;" class="animable" id="elpklssvbtpef"></path></g><path d="M241.39,117c-1.12,4.22,4.94,10,11.12,7.5,4.78-2,8.26-8.17,5.32-12.62C254.55,106.86,243.58,108.8,241.39,117Z" style="fill: rgb(255, 255, 255); transform-origin: 250.084px 117.118px;" id="el86p2sjknrri" class="animable"></path><path d="M222.86,82.48s5.88,2.18,7.68,4.39c2.43,3,3.62,14.32,3.62,14.32s6.33-13.58,1.12-18.54S222.86,82.48,222.86,82.48Z" style="fill: rgb(255, 255, 255); transform-origin: 230.099px 90.7953px;" id="elj15uo54yzbk" class="animable"></path><path d="M264.05,117.31s-2.66-5-4.88-6.16c-3-1.59-13.49-.11-13.49-.11s11.69-9,16.82-5.28S264.05,117.31,264.05,117.31Z" style="fill: rgb(255, 255, 255); transform-origin: 255.473px 111.084px;" id="elya2rcguk5pp" class="animable"></path><path d="M216.85,107.9a16,16,0,0,0-6.14,6.13c-2.22,4.1-1.85,6.75-1.61,6.82s.06-.78.75-1c0,0,.85,7.81,2,6.29.87-1.18,1.76-1,2.52-2.09.87-1.25,1-2.27,1.65-2.78.85-.69,1.47-.51,2.07-1.32s.31-1.52.47-2.27c.21-1,1.15-1.74,1.76-2.56a10.3,10.3,0,0,0,1.62-2.56,31,31,0,0,0-4,2c-1.43.75-3,1.27-3.73,2.38C213.76,117.63,217.53,110.69,216.85,107.9Z" style="fill: rgb(255, 255, 255); transform-origin: 215.428px 117.118px;" id="elal01kiwuc8i" class="animable"></path><path d="M225,113.75c-3.06.84-3.34,3.92-5.49,6.13-.61.62-.93.78-1.74,1.59-1.73,1.74-2.79,2.81-3.2,4.31-.55,2,.15,4.65,1.2,4.86,1.69.34,4-5.76,4.66-5.49s-1.24,6-.82,5.95c.08,0,1.18-3.65,2.23-5,.86-1.12,1.35-1.32,2.25-2.38s1-2.69,1.44-3.87c.72-1.83,1.6-3.15,1.22-3.36-.58-.33-2.23,2-2.48,2-.46,0-.77-2-.75-2.46A3.31,3.31,0,0,1,225,113.75Z" style="fill: rgb(255, 255, 255); transform-origin: 220.61px 122.425px;" id="el0lmb5dwsz1o" class="animable"></path><path d="M231.31,121.53c-1.05-.76-4,1.66-4.38,2-2.68,2.21-2.47,3.72-5,6.14s-2.65,2.91-4,3.5c-1,.46,2.42,2.83,4,3,2.17.27,4.14-1.72,5.32-1.06.43.24-.61,1.62-1.26,2.41-.31.37,1.45.15,1.72,0a.11.11,0,0,1,.08,0c.17,0,.06.64.19,1,.27.62,2,.74,2.89.39,2.11-.82,3.18-.32,4.69-1.35,5.35-3.65,5-3.57,5.82-4.47a12.4,12.4,0,0,0,3-5.12,5.92,5.92,0,0,1-2.48,2.32c-.51.25-.73-.17-2.18.38-.25.1.43-.83.23-1-.46-.47-1.56.13-2.05-.35-.09-.09-.12.58-.59.83-1.61.85-4.75,4.13-4.52,3.85,2.69-3.26,2.86-4.3,2.67-4.46s.83-1.15.43-1.66-1.81-.12-2.83.31c-1.32.54-1.8,1.52-2.58,2.25a28.45,28.45,0,0,0-3.38,2.95c-.84,1-1.39,1.39-1.91,1.26-.29-.07,3.64-3.47,5.62-7.39C231.92,124.94,232.34,122.28,231.31,121.53Z" style="fill: rgb(255, 255, 255); transform-origin: 231.065px 130.244px;" id="elqin0taxett" class="animable"></path><path d="M235.81,109.85c.29.62-1.74,3.07-4.21,5.57-1.67,1.69-2.09,1.8-2.34,1.69-.78-.32-1-3,.31-4.76C230,111.8,235.7,109.61,235.81,109.85Z" style="fill: rgb(255, 255, 255); transform-origin: 232.234px 113.486px;" id="el48f2botcese" class="animable"></path><path d="M236.57,111.35c-.18-.73-5.07,5.82-5,6.05.38,1,3.23,1.65,4.11.28A8.28,8.28,0,0,0,236.57,111.35Z" style="fill: rgb(255, 255, 255); transform-origin: 234.205px 114.877px;" id="eloea3f46jb1e" class="animable"></path></g><g id="freepik--Character--inject-77" class="animable" style="transform-origin: 278.386px 336.361px;"><path d="M155.79,240.49c-11.49,8-10.08,21.7-15.26,28.47-3.17,4.14-12.39,7.86-14.69,12.78-3.79,8.09,2.83,11.87.76,16.27-2.93,6.22-11.33,4.78-14,15.19s7.4,22.92,34.05,29,42.62-2.43,44.59-11.3-6.66-12.85-6.52-19.62c.09-4.33,6-6.7,7.14-14.55s-6.05-11.24-6.38-18.06,5-22.69-3.7-32.06S161.45,236.54,155.79,240.49Z" style="fill: rgb(201, 76, 58); transform-origin: 152.084px 291.236px;" id="elhi24xqxapgh" class="animable"></path><path d="M157,240.86a22.81,22.81,0,0,0-7.86,7.43A51.1,51.1,0,0,0,144,258.72,30.5,30.5,0,0,1,141.2,265a16.57,16.57,0,0,1-4.14,4.17c-3.22,2.38-6.94,4-9.9,6.8-2.81,2.6-5.17,6.23-4.62,10.26.3,2.19,1.48,4.08,2.11,6.17s.66,4.35-1.1,5.74c-1.5,1.19-3.53,1.59-5.18,2.51a17.33,17.33,0,0,0-4.38,3.48,13.83,13.83,0,0,0-3.68,10.35c.62,8.76,8,14.52,14.88,18.41,1,.54,1.93,1.07,2.91,1.6.15.08.31-.14.16-.23-6.93-4.15-15-9-16.82-17.68a12.94,12.94,0,0,1,2.5-10.94,15.94,15.94,0,0,1,4.33-3.73c1.59-.95,3.36-1.44,5-2.33a5.17,5.17,0,0,0,2.81-4.28,12.8,12.8,0,0,0-1.39-5.72,10.39,10.39,0,0,1-1.08-6,11.47,11.47,0,0,1,2.78-5.29c2.65-3,6.25-4.82,9.55-7s6.07-4.8,7.61-8.57c.79-1.91,1.36-3.9,2.07-5.84a54.1,54.1,0,0,1,2.22-5.28,26.51,26.51,0,0,1,6.79-9A14.61,14.61,0,0,1,157,241C157.14,241,157.07,240.81,157,240.86Z" style="fill: rgb(201, 76, 58); transform-origin: 133.68px 287.679px;" id="el5r15tizb50h" class="animable"></path><path d="M193.13,324.41a10.49,10.49,0,0,0-1.41-4.23c-.8-1.32-1.82-2.48-2.74-3.71a7.93,7.93,0,0,1-1.78-4,7.64,7.64,0,0,1,1.74-4.84,37.71,37.71,0,0,0,3-4.55,17.77,17.77,0,0,0,1.61-5A18.14,18.14,0,0,0,192,287.49c-.75-1.64-1.62-3.22-2.38-4.86a22.26,22.26,0,0,1-1.79-5.63c-.75-4.3-.52-8.72-1-13a67.06,67.06,0,0,0-3-13c0-.11-.19,0-.15.07a59.4,59.4,0,0,1,2.56,11.74c.44,3.79.34,7.6.56,11.4a28.65,28.65,0,0,0,.77,5.54,29.21,29.21,0,0,0,1.82,4.88c1.48,3.24,3,6.45,3.13,10.12a17.4,17.4,0,0,1-2.91,10.15c-1.72,2.59-4.05,5.39-3.17,8.75.74,2.83,3.09,4.75,4.52,7.19a11.17,11.17,0,0,1,.85,8.93c-2.32,7.58-10.33,10.58-17.46,10.17a.18.18,0,0,0,0,.36c6.18.6,13.2-1.43,16.75-7A13.7,13.7,0,0,0,193.13,324.41Z" style="fill: rgb(201, 76, 58); transform-origin: 183.969px 295.677px;" id="elivy4gp6nek8" class="animable"></path><path d="M160.39,302.5c7,10.58,48.2,45.37,65.68,40.46,4.47-1.26,8.56-4.23,8.59-9.77.1-14.11-3.72-32.11-17-59.37-.54-1.11-27.4,8.67-26.36,15.44.11.73,7.89,16.81,7.22,17.3-.25.18-10.72-4.65-30.38-11.55C158.84,291.75,156.21,296.18,160.39,302.5Z" style="fill: rgb(255, 196, 192); transform-origin: 196.562px 308.583px;" id="el9tax7twns8i" class="animable"></path><path d="M198.56,306.2c2.31,10.32,5.74,22.9,6.91,25.22,0,.08-.1.14-.15.07-2.55-3.92-7.1-19.42-6.93-25.24C198.39,306.14,198.54,306.09,198.56,306.2Z" style="fill: rgb(38, 50, 56); transform-origin: 201.928px 318.83px;" id="elg360iv041b" class="animable"></path><path d="M218.58,275.75c-1.82-5.09-10.67-19.83-18.48-25.34-4.14-2.92-16.42-9.66-18.51-7.36-1.91,2.09,1,4.77,1,4.77s-5.52-2.93-8.14,0S177,255,177,255s-5.89-2.59-8.29.53,3.49,6.54,3.49,6.54-5.27-2.62-6.17.79c-1.08,4.09,9.19,7.82,13.13,11.81.9.91,16.83,19.65,16.83,19.65Z" style="fill: rgb(255, 196, 192); transform-origin: 192.265px 268.45px;" id="elhx2mdm1aog" class="animable"></path><path d="M172.18,262.34c7.54,2.76,10.36,5.27,15.19,11.53.09.12.3,0,.21-.12-4.17-6.57-7.26-10.23-15.29-11.79C171.9,261.89,171.82,262.2,172.18,262.34Z" style="fill: rgb(38, 50, 56); transform-origin: 179.776px 267.935px;" id="elzsy2vosy2on" class="animable"></path><path d="M176.94,255.27c7.59,3.55,10.67,6.25,16.21,12.43.08.09.24,0,.17-.13-4.93-6.52-8.09-10.1-16.14-12.66C176.82,254.8,176.6,255.1,176.94,255.27Z" style="fill: rgb(38, 50, 56); transform-origin: 185.054px 261.311px;" id="elyvn43pefnj" class="animable"></path><path d="M182.85,248.12c7.09,4,10.6,6.78,15.21,13.48a.15.15,0,0,0,.26-.15c-4-7.29-8.39-10.83-15.33-13.53C182.52,247.74,182.4,247.87,182.85,248.12Z" style="fill: rgb(38, 50, 56); transform-origin: 190.454px 254.756px;" id="elmy8lgs35m4" class="animable"></path><path d="M196.42,300.77s-9.31-4.61-12.77-7.53-12.35-18.55-9.08-20.66c4.22-2.73,11.13,5.28,14,9.65,0,0,9.75-6.32,16-1.64S196.42,300.77,196.42,300.77Z" style="fill: rgb(255, 196, 192); transform-origin: 190.001px 286.398px;" id="elte3r633gll9" class="animable"></path><path d="M176,272.21c5.64.29,9,6.26,12.14,10.29a.48.48,0,0,0,.77,0c4.26-2.38,11-4.49,15.6-2.23a.12.12,0,0,0,.12-.2c-4.64-3.1-11.4-1.56-15.9,1.34-3.12-4.18-6.79-10-12.73-9.26C175.94,272.16,175.94,272.21,176,272.21Z" style="fill: rgb(38, 50, 56); transform-origin: 190.31px 277.39px;" id="el41jtubsogap" class="animable"></path><path d="M181.33,328.42l13.88-24s-17-9.33-28.4-11.82-11.48,4.56-4.76,13.75S181.33,328.42,181.33,328.42Z" style="fill: #7E57C2; transform-origin: 176.361px 310.257px;" id="elv0l0k07247h" class="animable"></path><g id="elvazye1nm7gj"><path d="M181.33,328.42l13.88-24s-17-9.33-28.4-11.82-11.48,4.56-4.76,13.75S181.33,328.42,181.33,328.42Z" style="opacity: 0.2; transform-origin: 176.361px 310.257px;" class="animable" id="elk8tuzkg157"></path></g><path d="M188.91,302.75c-2.46,3.52-8.85,13.29-12.13,20.21,0,0,.14.14.16.1,3.64-5.31,10.07-16.43,12.21-20.17C189.19,302.82,189,302.68,188.91,302.75Z" style="fill: rgb(38, 50, 56); transform-origin: 182.968px 312.899px;" id="el5ddd31e7iuc" class="animable"></path><path d="M189.52,314.25l-8.18,14.17s-12.59-12.91-19.29-22.1c-3.81-5.22-5.45-9.75-4-12.23Z" style="fill: rgb(38, 50, 56); transform-origin: 173.524px 311.255px;" id="ela2oy3vtm45a" class="animable"></path><path d="M445.3,432.12c-2.94,1.13-88.39,2.68-91.74.77-.36-.21-.26-4-1.52-13.74-.06-.47-2-2.28-5.05-4.83-11.43-9.58-38.28-29.77-38.28-29.77l42.64-37.05,41.33,40.62,10.74,10.56s34.92,18.85,38.37,21.34S448.24,431,445.3,432.12Z" style="fill: rgb(255, 196, 192); transform-origin: 377.602px 390.645px;" id="elw87b7ebslo8" class="animable"></path><path d="M445.3,432.11c-2.94,1.14-88.39,2.69-91.74.78-.36-.21-.26-4-1.51-13.74,13.42,2.13,73.33,3.26,79.47.82,5.5-2.2-5-8.62-7.22-9.91,8.17,4.49,16,8.85,17.5,10C445.23,422.52,448.24,431,445.3,432.11Z" style="fill: rgb(38, 50, 56); transform-origin: 399.271px 421.925px;" id="el7n7leebukjm" class="animable"></path><path d="M383.56,373.9l-45.35,40.23s-47.27-48.06-57-48.44c-4.9-.19-83.14,43.5-120.14,47.32-26.23,2.71-42.28-30.67-42.28-30.67l58-22.43c40.5-20,86.14-55.82,113.74-52.48C320.5,311.06,383.56,373.9,383.56,373.9Z" style="fill: rgb(69, 90, 100); transform-origin: 251.175px 360.671px;" id="elq7tlw6vqj6" class="animable"></path><path d="M369.07,368.16c-7.42,6.6-5.38,4.6-12.72,11.28-3.6,3.26-21.71,19.63-24.56,23.23-.07.08,0,.2.13.14,3.81-2.55,21.57-19.31,25.11-22.64,7.22-6.8,5.08-4.93,12.23-11.81A.14.14,0,1,0,369.07,368.16Z" style="fill: rgb(38, 50, 56); transform-origin: 350.542px 385.465px;" id="elo94pped39e" class="animable"></path><path d="M331.22,400.58c-10.31-9.09-44.07-38.67-45.44-39.77a18.72,18.72,0,0,0-3.52-2.64,3.7,3.7,0,0,0-3.25.27c-1.56.72-3.09,1.52-4.64,2.28l-9.14,4.46c-11.8,5.76-23.55,11.68-35.45,17.25a356.44,356.44,0,0,1-35,14.53,179.08,179.08,0,0,1-36.66,8.74c-1.54.19-3.09.35-4.63.5-.11,0-.11.18,0,.17a147.84,147.84,0,0,0,36.09-6.71,279.75,279.75,0,0,0,34.56-13.54c11.66-5.37,23.15-11.1,34.63-16.81,6.07-3,12.12-6.06,18.2-9,1.38-.67,3.35-2.14,4.92-1.41a8.46,8.46,0,0,1,1.82,1.34l2,1.68c2.61,2.17,44,37.82,45.36,38.84C331.18,400.8,331.32,400.67,331.22,400.58Z" style="fill: rgb(38, 50, 56); transform-origin: 242.331px 382.143px;" id="elk5dlfap3byo" class="animable"></path><path d="M281,365.7c-6.27.67-83.33,43.52-120,47.31-26.23,2.71-42.28-30.67-42.28-30.67l19.83-7.68Z" style="fill: rgb(38, 50, 56); transform-origin: 199.86px 389.433px;" id="els2lo7co2lye" class="animable"></path><path d="M118.62,372.81s-6.31,36.44,11.92,50.76,151.72,12.59,172,6.05,20.89-39.24-1.26-46.81C280.2,375.6,190.6,372.1,188.39,371.22c-.56-.22,7.94-5.32,7.9-5.63l-20.38-6.23Z" style="fill: rgb(69, 90, 100); transform-origin: 217.693px 396.932px;" id="elahdj810aa75" class="animable"></path><path d="M146.28,371.89c0-.15-.27-.1-.27,0a18,18,0,0,1-4.21,11.58c-3.11,3.58-7.68,5.59-11.83,7.68-.39.21-.09.83.32.71a36.78,36.78,0,0,0,7.32-3.16,17.61,17.61,0,0,0,5.5-4.57A15.78,15.78,0,0,0,146.28,371.89Z" style="fill: rgb(38, 50, 56); transform-origin: 138.133px 381.835px;" id="eleo1g13iu7se" class="animable"></path><path d="M186.92,367.38c-.93-1.19-1.93-2.31-2.9-3.46-2.28-2.71-4.57-5.44-7-8.06-.22-.25-.67.1-.46.37,1.61,2.11,3.32,4.15,5,6.2.85,1.05,1.72,2.1,2.59,3.15a19.94,19.94,0,0,1,2.42,3.07c.62,1.16-.2,2.16-1.41,2.29a4.2,4.2,0,0,1-2.92-1.07,39.33,39.33,0,0,1-4.94-5.29c-1-1.08-1.92-2.16-2.9-3.22s-2.14-2.22-3.17-3.35c-.07-.07-.2,0-.14.11.9,1.24,1.74,2.54,2.65,3.78s1.82,2.47,2.75,3.69,1.8,2.28,2.75,3.39a11.37,11.37,0,0,0,2.78,2.49c1.73,1,4.74,1.24,5.66-1A3.13,3.13,0,0,0,186.92,367.38Z" style="fill: rgb(38, 50, 56); transform-origin: 179.444px 363.988px;" id="ell03syq3z9g" class="animable"></path><path d="M299.75,429.74c-7,.13-13.95.53-20.92.68s-13.84.19-20.76.12q-20.85-.19-41.66-1.62c-14-1-29.12-2.36-43-4.29-6.66-.92-13.41-1.69-20-3.1a31.6,31.6,0,0,1-15.77-8.06c-9-8.74-12.52-21.6-14-33.88q-.29-2.47-.48-4.95c0-.11-.18-.11-.17,0,.81,12.6,2.77,25.73,10.69,35.85a31.45,31.45,0,0,0,12.9,10c6.23,2.49,13.15,3.08,19.73,4,14,1.9,29.15,3.36,43.2,4.45s28.32,1.78,42.51,2,28.37,0,42.54-.69c1.73-.08,3.45-.18,5.18-.33C299.85,429.89,299.85,429.74,299.75,429.74Z" style="fill: rgb(38, 50, 56); transform-origin: 211.407px 402.79px;" id="elw7jby3apzg9" class="animable"></path><path d="M255.77,376.17c-4.39-.65-8.77-1.28-13.18-1.74s-8.92-.86-13.39-1.24c-8.83-.75-17.69-1.42-26.54-1.83-5-.24-10.06-.26-15.1-.2-.16,0-.14.23,0,.25,8.85.8,17.71,1.36,26.58,1.95s17.69,1.36,26.52,2.2c5,.48,10,.85,15,1.26C256.07,376.85,256.14,376.22,255.77,376.17Z" style="fill: rgb(38, 50, 56); transform-origin: 221.729px 373.976px;" id="elbech8ouxro" class="animable"></path><path d="M197.34,365.15a67.55,67.55,0,0,0-10.17,5.44,80.78,80.78,0,0,0-9.4,6.58c-.09.07,0,.17.11.13,3.45-1.59,6.76-3.59,10-5.5a96,96,0,0,0,9.63-6.18C197.76,365.45,197.63,365,197.34,365.15Z" style="fill: rgb(38, 50, 56); transform-origin: 187.688px 371.215px;" id="elgg9ma8raxvw" class="animable"></path><path d="M191.54,368.72,116,374.45s7.44-35,18.16-62.71c11.48-29.66,27.33-21.89,33-17.22,6.67,5.53,20,26.44,21,30.51,1.66,6.73-3.91,14.46-3.91,14.46Z" style="fill: #7E57C2; transform-origin: 153.77px 332.224px;" id="elf36hn610jl" class="animable"></path><path d="M188.68,326.65a19.64,19.64,0,0,0-2.29-6.14c-1.14-2.11-2.4-4.16-3.69-6.18a2.39,2.39,0,0,1-.13-.21h0c-.08-.25-.16-.49-.25-.74-.16-.45-.36-.9-.56-1.34a27.3,27.3,0,0,0-1.42-2.67.06.06,0,0,0-.1.05c.4.95.81,1.91,1.25,2.85.08.18.16.37.25.55a67.09,67.09,0,0,0-3.9-5.47s-.13,0-.1.06c2.4,4.07,5,8,7.22,12.16a26,26,0,0,1,2.53,5.95,12.68,12.68,0,0,1-.16,6.75,22.37,22.37,0,0,1-1.43,3.64c-.58,1.22-1.12,2.46-1.74,3.66,0,.09.1.17.16.09a31.44,31.44,0,0,0,3.52-6.21A13.29,13.29,0,0,0,188.68,326.65Z" style="fill: rgb(38, 50, 56); transform-origin: 183.271px 323.521px;" id="el6y42fm8zx1a" class="animable"></path><g id="elfvfviwciutu"><path d="M164.3,292.53l-18.8,1.35a20,20,0,0,1,2.28-1.62l13.93-1A22.29,22.29,0,0,1,164.3,292.53Zm3.28,2.36-24.92,1.79c-.43.49-.86,1-1.28,1.56l27.61-2C168.5,295.74,168,295.28,167.58,294.89Zm3.59,3.79L139.48,301q-.47.74-.93,1.53l33.77-2.43C171.93,299.58,171.55,299.12,171.17,298.68Zm3.06,3.83-37.15,2.67c-.25.49-.5,1-.74,1.52l38.93-2.8Zm2.82,3.86-41.91,3c-.21.49-.42,1-.62,1.51l43.5-3.13C177.7,307.3,177.38,306.83,177.05,306.37Zm2.65,3.86-46.21,3.32-.57,1.5,47.71-3.43Zm2.51,3.87L132,317.71l-.54,1.5,51.67-3.71Zm2.37,3.88-54.08,3.89c-.17.5-.34,1-.52,1.5l55.42-4C185.14,318.94,184.87,318.46,184.58,318Zm2.18,3.9L129.1,326c-.16.5-.32,1-.49,1.5l58.85-4.23C187.26,322.87,187,322.39,186.76,321.88Zm1.53,3.94-60.52,4.35c-.16.5-.32,1-.47,1.5l61.13-4.4A10,10,0,0,0,188.29,325.82Zm-61.8,8.49q-.24.75-.45,1.5L188,331.36c.12-.49.22-1,.3-1.49Zm-1.24,4.15c-.15.5-.3,1-.44,1.49l61.66-4.43c.22-.47.44-1,.64-1.51Zm59.79-.25-61,4.38-.42,1.5,60.65-4.36-.06-.24S184.56,339,185,338.21Zm-.12,4.06-62,4.46c-.14.5-.28,1-.41,1.49l62.79-4.52Zm1,4-64.14,4.61c-.13.51-.27,1-.4,1.5l64.9-4.67Zm1,4L120.68,355c-.12.51-.25,1-.37,1.49l67-4.81Zm1,4-68.28,4.91c-.13.51-.25,1-.37,1.49l69-5Zm1,4-70.29,5.05c-.12.51-.24,1-.36,1.49l71-5.11Zm1,4-72.28,5.19c-.12.52-.23,1-.35,1.49l73-5.25Zm1,4-74.22,5.34c-.14.58-.25,1.08-.34,1.49l74.92-5.39Z" style="opacity: 0.1; transform-origin: 153.82px 332.18px;" class="animable" id="el9cejfaz30f6"></path></g><path d="M142.79,297.77c-5.4,7-26.35,35.22-26.82,54.08-.31,12.67,11.87,23,20.61,10.63,9.11-12.92,15.7-49.83,16.33-59C153.44,295.88,149.8,288.63,142.79,297.77Z" style="fill: rgb(255, 196, 192); transform-origin: 134.462px 330.774px;" id="elgyc2l7ea9co" class="animable"></path><path d="M123.86,323.21l26.8,7.18s4.62-18.82,4.06-30.49-7.37-9.91-14.51-1S123.86,323.21,123.86,323.21Z" style="fill: #7E57C2; transform-origin: 139.314px 311.035px;" id="elc8h0q5299ov" class="animable"></path><g id="elx54iz8tk1pf"><g style="opacity: 0.2; transform-origin: 139.314px 311.035px;" class="animable" id="el5s7rxmagnxt"><path d="M123.86,323.21l26.8,7.18s4.62-18.82,4.06-30.49-7.37-9.91-14.51-1S123.86,323.21,123.86,323.21Z" id="elkcut2jqxho" class="animable" style="transform-origin: 139.314px 311.035px;"></path></g></g><path d="M150.58,325.19c-4.08-1.36-15.26-4.72-22.82-5.9,0,0-.09.17-.05.18,6.12,2,18.61,5,22.8,6C150.59,325.48,150.66,325.22,150.58,325.19Z" style="fill: rgb(38, 50, 56); transform-origin: 139.158px 322.38px;" id="elbiz6f0oknd" class="animable"></path><path d="M154.78,314.92s-.05-.06-.07,0c-.39.94-.73,1.88-1.05,2.85.29-2.08.52-4.15.71-6.23a.06.06,0,0,0-.12,0c-1.24,6.15-2.63,12.27-3.74,18.44-.67,0-1.34,0-2,0a.09.09,0,0,0,0,.18,22.17,22.17,0,0,1,2.18.46c.17,0,.39,0,.44-.19a88.93,88.93,0,0,0,2.29-10.75c.23-.57.45-1.13.63-1.71A21.19,21.19,0,0,0,154.78,314.92Z" style="fill: rgb(38, 50, 56); transform-origin: 151.6px 321.05px;" id="elzgoa7634e5" class="animable"></path><path d="M151.22,293.15c.25,1.33,6.16,10.14,12.18,10.12,2,0,2.39-10.71,2.39-10.71l.21-.79,3-11-12.64-8.92-1.83-1.19s-.61,3.06-1.34,6.87c0,.17-.07.35-.1.54s-.1.41-.13.62c-.12.56-.23,1.14-.34,1.72s-.16.88-.22,1.34-.15.92-.23,1.39A74.12,74.12,0,0,0,151.22,293.15Z" style="fill: rgb(255, 196, 192); transform-origin: 160.11px 286.965px;" id="elrfheiou0h5n" class="animable"></path><path d="M153.15,277.57A22.78,22.78,0,0,0,166,291.77l3-11-12.64-8.92-1.83-1.19S153.88,273.76,153.15,277.57Z" style="fill: rgb(38, 50, 56); transform-origin: 161.075px 281.215px;" id="elbwxmo3f1jdh" class="animable"></path><path d="M186.65,264.4c.43,19.93-11.46,22.44-15.76,22.53-3.9.08-17.19-.15-19.68-19.93s6.65-26.28,15.56-26.93S186.22,244.47,186.65,264.4Z" style="fill: rgb(255, 196, 192); transform-origin: 168.728px 263.477px;" id="elz1c80sr2v3b" class="animable"></path><path d="M181.42,258.91c.43.2.8.45,1.2.68a2.26,2.26,0,0,1,1.09.93.71.71,0,0,1-.27.83,1.74,1.74,0,0,1-1.77-.14,2.59,2.59,0,0,1-1.27-1.36A.76.76,0,0,1,181.42,258.91Z" style="fill: rgb(201, 76, 58); transform-origin: 182.057px 260.188px;" id="ela0ghh3ik12u" class="animable"></path><path d="M171.68,258.93a13.51,13.51,0,0,0-1.32.4,2.24,2.24,0,0,0-1.27.66.71.71,0,0,0,.07.86,1.77,1.77,0,0,0,1.76.27,2.57,2.57,0,0,0,1.54-1.05A.75.75,0,0,0,171.68,258.93Z" style="fill: rgb(201, 76, 58); transform-origin: 170.778px 260.079px;" id="elb4d9f1vflic" class="animable"></path><path d="M171.06,275.25a19.26,19.26,0,0,1,6.43.15l-.18-3.21c.39.19,2.41,1.06,2.37.5a63.77,63.77,0,0,0-2-13.55.13.13,0,0,0-.25,0c.15,4.47,1,8.09,1.24,12.58a8.47,8.47,0,0,0-2.26-.65,22.84,22.84,0,0,0,.16,3.15,14.63,14.63,0,0,0-5.45.64C170.44,275.21,170.13,275.39,171.06,275.25Z" style="fill: rgb(38, 50, 56); transform-origin: 175.08px 267.223px;" id="el2yahe39147" class="animable"></path><path d="M167.38,265.33a4.92,4.92,0,0,1,2.64-.08,3.92,3.92,0,0,1,1.26.63,3.15,3.15,0,0,1,.91,1.14l.38.8-.88-.14a10,10,0,0,0-1.9-.1,4,4,0,0,0-1.87.54,2.92,2.92,0,0,1,1.75-1.22,5.32,5.32,0,0,1,2.18-.14l-.51.66a3.22,3.22,0,0,0-1.59-1.42A9.92,9.92,0,0,0,167.38,265.33Z" style="fill: rgb(38, 50, 56); transform-origin: 169.975px 266.614px;" id="el2oc09qhw5ht" class="animable"></path><path d="M169.74,269a8,8,0,0,0,2-.63c.14-.08.71-.44.68-.56a3.64,3.64,0,0,0-.3-1,2.52,2.52,0,0,1,.5,1,1.3,1.3,0,0,1-.74.86A4.1,4.1,0,0,1,169.74,269Z" style="fill: rgb(38, 50, 56); transform-origin: 171.18px 267.918px;" id="eltfzez4y3y9g" class="animable"></path><path d="M184.42,264.89a4.16,4.16,0,0,0-1.22-.07,4.49,4.49,0,0,0-1.23.29,3.61,3.61,0,0,0-1.1.74,3.17,3.17,0,0,0-.72,1.21l-.27.81.81-.23a8.32,8.32,0,0,1,1.75-.31,3.46,3.46,0,0,1,1.79.31,2.67,2.67,0,0,0-1.76-1,5,5,0,0,0-2,.12l.54.58a3.05,3.05,0,0,1,1.32-1.55A8.86,8.86,0,0,1,184.42,264.89Z" style="fill: rgb(38, 50, 56); transform-origin: 182.15px 266.337px;" id="ely5fk4tq0uo" class="animable"></path><path d="M182.63,268.69a7.73,7.73,0,0,1-1.89-.38c-.14-.07-.7-.36-.69-.47a3.81,3.81,0,0,1,.17-1,2.55,2.55,0,0,0-.36,1,1.27,1.27,0,0,0,.79.74A3.75,3.75,0,0,0,182.63,268.69Z" style="fill: rgb(38, 50, 56); transform-origin: 181.245px 267.807px;" id="el2chbq8707ol" class="animable"></path><path d="M170.51,275.21c-.81.45-1.49,1.5-.95,1.76s2.16-.2,3.41-.35c.92-.1,2.16.25,2.4-.45S173.54,273.54,170.51,275.21Z" style="fill: rgb(38, 50, 56); transform-origin: 172.378px 275.798px;" id="el573ouja74ui" class="animable"></path><path d="M173.71,276.61a4.54,4.54,0,0,0-.74,0c-1.26.13-2.87.61-3.41.35s0-1.11.71-1.61a3.53,3.53,0,0,1,2.28.14A2.43,2.43,0,0,1,173.71,276.61Z" style="fill: rgb(255, 153, 186); transform-origin: 171.525px 276.13px;" id="elmp1ttmetz9" class="animable"></path><path d="M168.91,278.09c.33.32.67.76,1.18.8a3.61,3.61,0,0,0,1.5-.37,0,0,0,0,1,.06.07,1.88,1.88,0,0,1-1.76.78,1.48,1.48,0,0,1-1.12-1.22C168.75,278.07,168.86,278,168.91,278.09Z" style="fill: rgb(38, 50, 56); transform-origin: 170.209px 278.716px;" id="elbn4k0i3q4ac" class="animable"></path><path d="M152.59,267.93c4.7,0,4.67-7.37,4.67-7.37s5.34-.48,5.74-9.09c0,0,2.56,5.2,9.79,6.27,1.53.23-3.59-3.75-3.59-3.75s6.14,5.58,17.55,3.48c.81-.15-.9-12.19-9.84-16.31s-17-1.79-22.57,3.85c0,0-6.56,3-7.31,9.22S150.76,267.91,152.59,267.93Z" style="fill: rgb(201, 76, 58); transform-origin: 166.938px 253.5px;" id="elbxxc2hqwt3" class="animable"></path><path d="M154.61,268.5s-3.94-6.49-6.86-5.13-.24,10.58,3,12a3.37,3.37,0,0,0,4.63-1.52Z" style="fill: rgb(255, 196, 192); transform-origin: 150.939px 269.475px;" id="elzld379juusr" class="animable"></path><path d="M148.59,266a0,0,0,0,0,0,.08c2.26,1.09,3.34,3.32,4.05,5.61a1.85,1.85,0,0,0-2.74-.69c-.07,0,0,.14,0,.13a2.07,2.07,0,0,1,2.23.87,9.8,9.8,0,0,1,1,1.91c.1.22.48.13.42-.11l0-.06C153.77,270.79,151.74,266.5,148.59,266Z" style="fill: rgb(38, 50, 56); transform-origin: 151.078px 270.018px;" id="elvst5nrwe7ef" class="animable"></path><path d="M186,257.31a29,29,0,0,1,1.09,7.64,35.73,35.73,0,0,1-.7,7.72,24.15,24.15,0,0,1-2.8,7.25,11.88,11.88,0,0,1-5.7,5.11,10.36,10.36,0,0,0,3-2.33,15.49,15.49,0,0,0,2.2-3.07,24.9,24.9,0,0,0,2.56-7.11,41.94,41.94,0,0,0,.35-15.21Z" style="fill: rgb(38, 50, 56); transform-origin: 182.493px 271.17px;" id="elkdsmbkfuuqb" class="animable"></path><path d="M135.09,364.75c6.72-8.47,11.62-37.79,17.95-73.11.88-4.88-33.44-7.52-34.64-2.35-1.52,6.52-5.78,54.86-3.32,66.13C118.75,372.21,131.27,369.56,135.09,364.75Z" style="fill: rgb(255, 196, 192); transform-origin: 133.694px 327.431px;" id="el3uqa9ntqt6f" class="animable"></path><path d="M166.58,273.46c.66,4.48-8.3,4.19-11.61,9.24a18.5,18.5,0,0,1-2.91,11L120,302s-3.86-14.68-1.55-25.92c1.6-7.76,7-24.28,29.35-31.95,5.31-1.81,14.17-.64,6.57,5.48a49.87,49.87,0,0,1-7.76,4.94c5.79-2.11,11.35-2.94,13.2.05,2.41,3.91-3.1,7-3.1,7s6.8-1.5,8.21,2.51c1.27,3.65-3.13,5.78-3.13,5.78S166,269.71,166.58,273.46Z" style="fill: rgb(255, 196, 192); transform-origin: 142.164px 272.677px;" id="eltozr8w984a" class="animable"></path><path d="M137.8,269c2.89-2.7,11-7.16,18.7-7.44.18,0,.28.13.12.17A83,83,0,0,0,137.84,269S137.77,269,137.8,269Z" style="fill: rgb(38, 50, 56); transform-origin: 147.246px 265.28px;" id="eleyz0yimp0t" class="animable"></path><path d="M133.09,263.22c2-2.94,8.25-8.22,15.07-9.46.16,0,.27.08.14.14a65.48,65.48,0,0,0-15.16,9.38S133.07,263.25,133.09,263.22Z" style="fill: rgb(38, 50, 56); transform-origin: 140.722px 258.52px;" id="elgw3pfkb37cd" class="animable"></path><path d="M142.58,276.07c2.73-2.08,11.33-6.3,19.11-6.31.18,0,.27.13.11.16a88.94,88.94,0,0,0-19.19,6.22S142.54,276.09,142.58,276.07Z" style="fill: rgb(38, 50, 56); transform-origin: 152.225px 272.95px;" id="elc2x9sousm2i" class="animable"></path><path d="M166.27,271.52a4.48,4.48,0,0,0-1.83-1.42,6.82,6.82,0,0,0-2.77-.29c-.08,0-.07.13,0,.14,1.38.06,3.39.71,4.19,1.85a2.92,2.92,0,0,1-.31,3.66,9.11,9.11,0,0,1-3.78,2.23,22,22,0,0,0-3.68,1.81,10,10,0,0,0-3.14,3.11s0,.09.07.05c1.9-2.5,4.95-3.61,7.76-4.74a7.22,7.22,0,0,0,3.61-2.59A3.34,3.34,0,0,0,166.27,271.52Z" style="fill: rgb(38, 50, 56); transform-origin: 160.939px 276.223px;" id="el6kixjes0fxd" class="animable"></path><path d="M160.8,261.1a17.78,17.78,0,0,0-4.3.38c-.15,0-.08.26.08.24.81-.09,4.22-.62,6.51.56a3.55,3.55,0,0,1,1.8,2.11,3.7,3.7,0,0,1-.44,2.77,8,8,0,0,1-2.68,2.62s0,.1,0,.08a8.2,8.2,0,0,0,2.89-2.15,4.21,4.21,0,0,0,.8-3C165.2,262.44,162.87,261.31,160.8,261.1Z" style="fill: rgb(38, 50, 56); transform-origin: 160.953px 265.476px;" id="el2kps0a0jq9v" class="animable"></path><path d="M160.41,255.05c-1.11-2.63-4.23-3-6.74-2.61a53.25,53.25,0,0,0-5.79,1.53c-.36.09-.37.22-.32.21.32-.05,6.11-1.74,8.9-1.31a4.54,4.54,0,0,1,3,1.69,3.28,3.28,0,0,1,.65,1.67,3.62,3.62,0,0,1-.46,1.84,12.27,12.27,0,0,1-3,3.43c0,.05,0,.15.06.12a7.77,7.77,0,0,0,3.18-2.83A4,4,0,0,0,160.41,255.05Z" style="fill: rgb(38, 50, 56); transform-origin: 154.098px 256.967px;" id="elmy094f35w6n" class="animable"></path><path d="M156.49,243.92a8.07,8.07,0,0,0-5-.74,15.44,15.44,0,0,0-5.9,1.71,0,0,0,1,0,0,.08c.86-.29,6.05-2,9.8-1,.73.2,1.53.76,1.54,1.59,0,2.94-7.65,7.27-9.18,8.27-.08.06,0,.2.08.16,3.11-1.56,9.3-4.92,9.65-8.23A2.08,2.08,0,0,0,156.49,243.92Z" style="fill: rgb(38, 50, 56); transform-origin: 151.536px 248.529px;" id="el2qgtuxnzzb7" class="animable"></path><path d="M155,282.66a15,15,0,0,1,.13,5.75,11.08,11.08,0,0,1-2.3,5.31l0-.08c-.17.64-.34,1.27-.55,1.91,0-.67.09-1.33.15-2v0l0-.06a14.09,14.09,0,0,0,1.2-2.51,20.53,20.53,0,0,0,.73-2.69A38.49,38.49,0,0,0,155,282.66Z" style="fill: rgb(38, 50, 56); transform-origin: 153.813px 289.105px;" id="eloyjg80pb1d" class="animable"></path></g><defs>     <filter id="active" height="200%">         <feMorphology in="SourceAlpha" result="DILATED" operator="dilate" radius="2"></feMorphology>                <feFlood flood-color="#32DFEC" flood-opacity="1" result="PINK"></feFlood>        <feComposite in="PINK" in2="DILATED" operator="in" result="OUTLINE"></feComposite>        <feMerge>            <feMergeNode in="OUTLINE"></feMergeNode>            <feMergeNode in="SourceGraphic"></feMergeNode>        </feMerge>    </filter>    <filter id="hover" height="200%">        <feMorphology in="SourceAlpha" result="DILATED" operator="dilate" radius="2"></feMorphology>                <feFlood flood-color="#ff0000" flood-opacity="0.5" result="PINK"></feFlood>        <feComposite in="PINK" in2="DILATED" operator="in" result="OUTLINE"></feComposite>        <feMerge>            <feMergeNode in="OUTLINE"></feMergeNode>            <feMergeNode in="SourceGraphic"></feMergeNode>        </feMerge>            <feColorMatrix type="matrix" values="0   0   0   0   0                0   1   0   0   0                0   0   0   0   0                0   0   0   1   0 "></feColorMatrix>    </filter></defs></svg>