<svg class="animated" id="freepik_stories-schizophrenia" xmlns="http://www.w3.org/2000/svg" viewBox="0 0 500 500" version="1.1" xmlns:xlink="http://www.w3.org/1999/xlink" xmlns:svgjs="http://svgjs.com/svgjs"><style>svg#freepik_stories-schizophrenia:not(.animated) .animable {opacity: 0;}svg#freepik_stories-schizophrenia.animated #freepik--Ghosts--inject-46 {animation: 1.5s Infinite  linear floating;animation-delay: 0.5s;}            @keyframes floating {                0% {                    opacity: 1;                    transform: translateY(0px);                }                50% {                    transform: translateY(-10px);                }                100% {                    opacity: 1;                    transform: translateY(0px);                }            }        .animator-hidden { display: none; }</style><g id="freepik--Floor--inject-46" class="animable animator-hidden" style="transform-origin: 251.008px 341.42px;"><path id="freepik--floor--inject-46" d="M81.14,443.92c-93.82-56.62-93.82-148.41,0-205s245.92-56.62,339.74,0,93.81,148.41,0,205S175,500.54,81.14,443.92Z" style="fill: rgb(245, 245, 245); transform-origin: 251.008px 341.42px;" class="animable"></path></g><g id="freepik--Shadow--inject-46" class="animable animator-hidden" style="transform-origin: 285.369px 381.636px;"><path id="freepik--shadow--inject-46" d="M257.83,382.84c3.07-.79,6.12-1.85,9.28-1.94a15.61,15.61,0,0,1,14.8,10.45c1,3.08,1,6.47,2.45,9.37,2.55,5.15,8.63,7.25,13.35,10.54,3.65,2.56,6.59,6,10,8.91,5,4.38,11.21,7.7,17.85,8.34s12.56.42,18.51-2.61a14,14,0,0,0,5.93-6c2.3-5.53-3.88-8.89,2.3-7,7.51,2.3,22.41-.07,25-6.14,3.24-7.48,0-11.44-5.93-15-7.2-4.34-17.33-8.78-22.75-13-4.45-3.48-13.38-12-17.7-15.64-14.48-12.2-22-13.61-37.17-20.8-12.6-6-28.71-7.1-42.57-7.71-15.44-.68-31.17,1-45.52,7.08-4.2,1.77-8.43,4.05-11,7.8a14.46,14.46,0,0,0-1.89,12.3c2.16,7,10.83,11.82,17.05,14.75C224.41,383.37,241.93,386.89,257.83,382.84Z" style="fill: rgb(224, 224, 224); transform-origin: 285.369px 381.636px;" class="animable"></path></g><g id="freepik--Pictures--inject-46" class="animable animator-hidden" style="transform-origin: 85.95px 84.015px;"><g id="freepik--pictures--inject-46" class="animable" style="transform-origin: 85.95px 84.015px;"><g id="freepik--Picture--inject-46" class="animable" style="transform-origin: 51.745px 109.92px;"><g id="freepik--Frame--inject-46" class="animable" style="transform-origin: 51.745px 109.92px;"><polygon points="30.64 142.16 32.6 143.34 72.89 120.08 70.92 118.91 30.64 142.16" style="fill: rgb(250, 250, 250); transform-origin: 51.765px 131.125px;" id="elzbfhewqsako" class="animable"></polygon><polygon points="70.92 118.91 32.6 141.03 32.6 100.89 70.92 78.79 70.92 118.91" style="fill: rgb(255, 255, 255); transform-origin: 51.76px 109.91px;" id="elaw0g9mtu6cs" class="animable"></polygon><path d="M76.59,71.22,28.9,98.76v51l47.69-27.54Zm-3.7,48.86L32.6,143.34V100.89L72.89,77.64Z" style="fill: rgb(240, 240, 240); transform-origin: 52.745px 110.49px;" id="eleghhddhwnm6" class="animable"></path><polygon points="72.89 120.08 70.92 118.91 70.92 78.79 72.89 77.64 72.89 120.08" style="fill: rgb(224, 224, 224); transform-origin: 71.905px 98.86px;" id="elb6iqur1e2if" class="animable"></polygon><polygon points="76.59 71.22 74.6 70.08 26.9 97.61 28.9 98.76 76.59 71.22" style="fill: rgb(250, 250, 250); transform-origin: 51.745px 84.42px;" id="elyvc2bzl9bd" class="animable"></polygon><polygon points="26.9 97.61 28.9 98.76 28.9 149.75 26.9 148.61 26.9 97.61" style="fill: rgb(224, 224, 224); transform-origin: 27.9px 123.68px;" id="elye5j3ravmqs" class="animable"></polygon></g><g id="freepik--Land--inject-46" class="animable" style="transform-origin: 51.765px 116.585px;"><polygon points="69.43 117.71 34.1 138.1 34.1 127.9 42.93 107.51 48.43 112.61 46.45 121.16 58.65 95.07 69.43 107.51 69.43 117.71" style="fill: rgb(240, 240, 240); transform-origin: 51.765px 116.585px;" id="elqq05xqu496m" class="animable"></polygon><path d="M48.1,97.66a5.78,5.78,0,0,0-2.61,4.52c0,1.67,1.17,2.35,2.61,1.51a5.78,5.78,0,0,0,2.61-4.52C50.71,97.5,49.54,96.82,48.1,97.66Z" style="fill: rgb(240, 240, 240); transform-origin: 48.1px 100.675px;" id="el31kj1b1tntb" class="animable"></path></g></g><g id="freepik--picture--inject-46" class="animable" style="transform-origin: 120.13px 58.135px;"><g id="freepik--frame--inject-46" class="animable" style="transform-origin: 120.13px 58.135px;"><polygon points="99 90.36 100.96 91.53 141.25 68.27 139.28 67.1 99 90.36" style="fill: rgb(250, 250, 250); transform-origin: 120.125px 79.315px;" id="elifef55m2w9i" class="animable"></polygon><polygon points="139.28 67.1 100.96 89.22 100.96 49.09 139.28 26.98 139.28 67.1" style="fill: rgb(255, 255, 255); transform-origin: 120.12px 58.1px;" id="el48l95hholvg" class="animable"></polygon><path d="M145,19.41,97.26,47v51L145,70.41Zm-3.7,48.86L101,91.53V49.09l40.29-23.26Z" style="fill: rgb(240, 240, 240); transform-origin: 121.13px 58.705px;" id="eltqx41zoqa7r" class="animable"></path><polygon points="141.25 68.27 139.28 67.1 139.28 26.98 141.25 25.83 141.25 68.27" style="fill: rgb(224, 224, 224); transform-origin: 140.265px 47.05px;" id="elr1h5rp2tnds" class="animable"></polygon><polygon points="144.95 19.41 142.96 18.27 95.26 45.81 97.26 46.95 144.95 19.41" style="fill: rgb(250, 250, 250); transform-origin: 120.105px 32.61px;" id="elqx4mqk5x9e" class="animable"></polygon><polygon points="95.26 45.81 97.26 46.95 97.26 97.94 95.26 96.8 95.26 45.81" style="fill: rgb(224, 224, 224); transform-origin: 96.26px 71.875px;" id="eliomb6mraksq" class="animable"></polygon></g><g id="freepik--land--inject-46" class="animable" style="transform-origin: 120.125px 64.78px;"><polygon points="137.79 65.9 102.46 86.3 102.46 76.1 111.29 55.7 116.8 60.8 114.81 69.35 127.02 43.26 137.79 55.7 137.79 65.9" style="fill: rgb(240, 240, 240); transform-origin: 120.125px 64.78px;" id="elqlphewijyuq" class="animable"></polygon><path d="M116.46,45.85a5.78,5.78,0,0,0-2.61,4.53c0,1.66,1.17,2.34,2.61,1.51a5.78,5.78,0,0,0,2.62-4.53C119.08,45.69,117.91,45,116.46,45.85Z" style="fill: rgb(240, 240, 240); transform-origin: 116.465px 48.8647px;" id="elcz206roxcje" class="animable"></path></g></g></g></g><g id="freepik--Window--inject-46" class="animable animator-hidden" style="transform-origin: 405.335px 122.4px;"><g id="freepik--window--inject-46" class="animable" style="transform-origin: 405.335px 122.4px;"><polygon points="465.69 214.38 462.54 216.25 344.97 148.05 348.11 146.18 465.69 214.38" style="fill: rgb(250, 250, 250); transform-origin: 405.33px 181.215px;" id="elq6z6nbsy93" class="animable"></polygon><polygon points="348.11 146.18 462.54 212.55 462.54 98.57 348.11 32.22 348.11 146.18" style="fill: rgb(255, 255, 255); transform-origin: 405.325px 122.385px;" id="elx1uf1g7yyx" class="animable"></polygon><polygon points="405.24 62.03 405.24 179.7 399.3 176.28 399.3 58.6 405.24 62.03" style="fill: rgb(240, 240, 240); transform-origin: 402.27px 119.15px;" id="elk3yt7swgdm" class="animable"></polygon><polygon points="408.2 60.31 405.24 62.03 405.24 179.7 408.2 177.98 408.2 60.31" style="fill: rgb(224, 224, 224); transform-origin: 406.72px 120.005px;" id="elvdsym34uyb" class="animable"></polygon><path d="M339,151.48l129.44,75.05V95.15L339,20.1ZM345,30.38,462.54,98.57V216.25L345,148.05Z" style="fill: rgb(240, 240, 240); transform-origin: 403.72px 123.315px;" id="elw3dpe5xnw2" class="animable"></path><polygon points="344.97 148.05 348.11 146.18 348.11 32.22 344.97 30.38 344.97 148.05" style="fill: rgb(224, 224, 224); transform-origin: 346.54px 89.215px;" id="el9cv7pb9hq6t" class="animable"></polygon><polygon points="339.03 20.1 342.23 18.27 471.67 93.32 468.48 95.15 339.03 20.1" style="fill: rgb(250, 250, 250); transform-origin: 405.35px 56.71px;" id="elebdywrgatzh" class="animable"></polygon><polygon points="471.67 93.32 468.48 95.15 468.47 226.53 471.67 224.7 471.67 93.32" style="fill: rgb(224, 224, 224); transform-origin: 470.07px 159.925px;" id="elvoi9v7r332h" class="animable"></polygon><polygon points="405.24 65.44 399.32 62.03 399.32 65.45 405.24 68.87 405.24 65.44" style="fill: rgb(224, 224, 224); transform-origin: 402.28px 65.45px;" id="elog1m7vqfex" class="animable"></polygon><g id="el21ky7i60lck"><polygon points="405.24 68.87 408.2 67.16 405.24 65.44 405.24 68.87" style="opacity: 0.15; transform-origin: 406.72px 67.155px;" class="animable" id="ellq1iyjcf1d"></polygon></g></g></g><g id="freepik--Character--inject-46" class="animable" style="transform-origin: 262.28px 293.871px;"><g id="freepik--character--inject-46" class="animable" style="transform-origin: 262.28px 293.871px;"><g id="freepik--Top--inject-46" class="animable" style="transform-origin: 233.502px 261.22px;"><g id="freepik--Arm--inject-46" class="animable" style="transform-origin: 283.729px 227.761px;"><path d="M250.43,239.88c8.92.79,11.31,1,17.5,2.85,17,5.18,33.11,9.6,33.11,9.6s17.38,15.48,12.41,17.85c-2.22,1.05-12.75,2.44-30.25,1.68-18.08-.78-27.43-1.23-27.43-1.23Z" style="fill: rgb(55, 71, 79); transform-origin: 282.387px 255.979px;" id="elynq5axcoa7" class="animable"></path><path d="M256.17,197.08c-.13-2.44-.29-4.87-.43-7.31a14.32,14.32,0,0,1,0-3.07,4.84,4.84,0,0,1,1.31-2.72c.53-.5,1.47-.79,1.94-.23a1.76,1.76,0,0,1,.27.59L262.81,196a28.79,28.79,0,0,0,1.31,3.72,15.19,15.19,0,0,1,1.47,3.57c.24,1.34.43,2.19.91,4,.33,1.24.62,2.45,1,3.68.79,2.65,1.63,4.75,4.6,9.1,4.66,6.84,24.19,15.18,36.06,25.71,4.53,4,7,7.62,8.35,13.47,1.82,7.71-1.38,11.79-6,11.3a37.89,37.89,0,0,1-21.85-11c-11.09-11.83-20.72-24.09-26.61-29.65-1.43-1.54-4.22-2.8-5.1-3.89a10,10,0,0,1-2.28-6.87,58.21,58.21,0,0,1,1.08-8.09,39.19,39.19,0,0,0,.72-6.47C256.43,202,256.31,199.56,256.17,197.08Z" style="fill: rgb(255, 189, 167); transform-origin: 285.843px 227.017px;" id="ela8iielb7gss" class="animable"></path><path d="M263.12,197h0l-.31-1-3.51-11.63a1.76,1.76,0,0,0-.27-.59c-.47-.56-1.41-.27-1.94.23a4.84,4.84,0,0,0-1.31,2.72,14.32,14.32,0,0,0,0,3.07c.14,2.44.3,4.87.43,7.31s.26,5,.31,7.45a39.19,39.19,0,0,1-.72,6.47,58.21,58.21,0,0,0-1.08,8.09A10,10,0,0,0,257,226a11.66,11.66,0,0,0,2.41,1.82C264.86,220.52,264.41,202,263.12,197Z" style="fill: rgb(240, 153, 122); transform-origin: 259.329px 205.647px;" id="eli422dny2eng" class="animable"></path></g><g id="freepik--Chest--inject-46" class="animable" style="transform-origin: 229.168px 261.22px;"><path id="freepik--Hair--inject-46" d="M226.3,167.24c-2.51-5.05-15.3-5.78-21.72,1.85s-1.69,8-11.35,15.53a16,16,0,0,0-4.73,19.1c3.42,7.87-1.71,10.81-2.85,16.53s-.1,9,4.22,15.32-2.46,12.69,1.39,22.3,24.91,13.83,36,5.75,11.27-17.22,8.23-25.73,1.65-12.82,3-22.65-1.06-17.19-5.14-24.82S226.3,167.24,226.3,167.24Z" style="fill: rgb(38, 50, 56); transform-origin: 212.044px 215.644px;" class="animable"></path><path d="M192.11,304.27c1.41,23.41,3.26,40.53,16.68,54.77l58.37-41-.71-28.54Z" style="fill: rgb(69, 90, 100); transform-origin: 229.635px 324.27px;" id="elizl1vklmsrb" class="animable"></path><path d="M208,240s11.21-.85,17.73-1.1a171.82,171.82,0,0,1,24.67,1,95.13,95.13,0,0,1,16.4,19.91c6.43,10.25,7.09,17.25,5.73,22.77-2.85,11.6-7.72,13.32-7.72,13.32.31,7.75.16,13.55,0,17.57-6.05,5-19.57,6.55-34.85,8.17-12.42,1.31-27.09,9.82-32.13,19.83-4.5-10.69-6.73-36.65-6.56-45.3.27-14.07,1-18.47,3.35-29.3C199.59,244.1,202.46,241.82,208,240Z" style="fill: #FB6222; transform-origin: 232.188px 290.143px;" id="eltghcaxxmj6k" class="animable"></path><path d="M270.25,266.05c-.44-.61-2.2-8.18-5.15-11.79-9.45-11.62-14.67-14.38-14.67-14.38a171.82,171.82,0,0,0-24.67-1C219.24,239.1,208,240,208,240a19.15,19.15,0,0,0-2.1.84c-.91,5.88-13.47,42.59-6.7,39.89,9.76-3.89,20.83-30,20.83-30s6.29,7.5,18.27,6.37c9.75-.92,12.43-7,10.36-9.71C248.69,247.31,263.77,254.76,270.25,266.05Z" style="fill: rgb(55, 71, 79); transform-origin: 233.728px 259.833px;" id="elp2r95wflflp" class="animable"></path><path d="M212.88,180.44c-4.51-4.15,4.83-12.55,11.4-13.15s5.93,4.64,5.93,4.64Z" style="fill: #FB6222; transform-origin: 220.96px 173.841px;" id="elyrxvihna5nd" class="animable"></path><path d="M264.05,179.63c-3.06-4.52-8.55-6.12-11.66-4.68-2.77-3.82-8.43-6-13.11-6.37-17.86-1.28-23.72,7.47-24.73,10.74-8.47,1.11-18.08,15-9.72,31.17,3.64,7,11.63,15.43,12.27,19.49l10.16-1.33a20.15,20.15,0,0,1,13.11-16.53c12.33-4.7,19.31-7.63,21.2-10.11C269.23,194.47,267.11,184.14,264.05,179.63Z" style="fill: rgb(38, 50, 56); transform-origin: 234.222px 199.217px;" id="elvac0wyxmxoa" class="animable"></path><path d="M261.59,193.38a48.17,48.17,0,0,1,.78,5.89,94,94,0,0,1,.22,11.87c-.72,14.08-5.09,18.44-8.86,20.17a18.57,18.57,0,0,1-11.18,1.1l-.41,8.36s10.21,9.74-1.3,12.92c-4.38,1.22-11.78.64-16.8-3.4a23.44,23.44,0,0,1-6.88-8.61l-.09-19.93s-5.76,2.9-9.84-1.66c-3.76-4.2-4.37-9.47-1.18-12.94s9.21-2.91,12.11,1.88c2.06,3.41,2.48.67,3.78-3.15s3.11-5.23,4.45-7.28c4.57-7,2-8.1,7-12.81,2.11-2,7.65-3.07,11.42.45.59.54,1.34,1.29,2,1.79C250.84,181.85,259.48,183.45,261.59,193.38Z" style="fill: rgb(255, 189, 167); transform-origin: 233.337px 219.098px;" id="el412x3zwp7mj" class="animable"></path><path d="M249.12,185.59c-2.44,1.78-1,6.88-2.37,10.84-.91,2.66-2.84,5.5-6.09,5.5a10.32,10.32,0,0,0,4.06-8.67c0-3.37-.85-6.88.75-8.91S249.12,185.59,249.12,185.59Z" style="fill: rgb(38, 50, 56); transform-origin: 244.89px 192.808px;" id="el8homfc08uk8" class="animable"></path><path d="M233.75,205.64a3.44,3.44,0,1,0,4-2.79A3.44,3.44,0,0,0,233.75,205.64Z" style="fill: rgb(240, 153, 122); transform-origin: 237.138px 206.235px;" id="elcgoi55rrhws" class="animable"></path><path d="M252.74,206.08a3.34,3.34,0,1,0,2.43-4.05A3.34,3.34,0,0,0,252.74,206.08Z" style="fill: rgb(240, 153, 122); transform-origin: 255.98px 205.27px;" id="elpq1e6iy2j7" class="animable"></path><path d="M235.67,205.28a2.37,2.37,0,1,0,4.27-2c-.57-1.18-1.4-.79-2.58-.23S235.1,204.11,235.67,205.28Z" style="fill: rgb(38, 50, 56); transform-origin: 237.895px 204.69px;" id="elw0x0v2c5mh" class="animable"></path><path d="M252.73,203.06a2.37,2.37,0,0,0,4.55,1.31c.37-1.25-.68-1.72-1.86-2.27C253.84,201.37,253.1,201.8,252.73,203.06Z" style="fill: rgb(38, 50, 56); transform-origin: 255.011px 203.862px;" id="eltjj7i3qtjr" class="animable"></path><path d="M233.34,199.34l4.77-3.28a3,3,0,0,1-.78,4.13A2.82,2.82,0,0,1,233.34,199.34Z" style="fill: rgb(38, 50, 56); transform-origin: 235.978px 198.37px;" id="elu4unc7kd4b8" class="animable"></path><path d="M253.34,195.52l4.85,3.24a2.8,2.8,0,0,1-4,.89A3.07,3.07,0,0,1,253.34,195.52Z" style="fill: rgb(38, 50, 56); transform-origin: 255.535px 197.831px;" id="ele0ngqtmna6g" class="animable"></path><polygon points="244.82 200.19 246.43 213.74 253.84 210.94 244.82 200.19" style="fill: rgb(240, 153, 122); transform-origin: 249.33px 206.965px;" id="elzy504yi9e59" class="animable"></polygon><path d="M246.75,222.16c-1.37.91-2.21-.47-4.62-1.47s-4.68.19-4.36-1.81,4.06-3.33,6.47-2.33S248.32,221.12,246.75,222.16Z" style="fill: rgb(177, 102, 104); transform-origin: 242.551px 219.333px;" id="el5w4o7uvd4ig" class="animable"></path><path d="M242.32,220.49a6.65,6.65,0,0,1,.65.34,3,3,0,0,0-2.55-3.26,2.44,2.44,0,0,0-2.06.49,2,2,0,0,0-.31.65C237.54,220.67,239.91,219.49,242.32,220.49Z" style="fill: rgb(242, 143, 143); transform-origin: 240.482px 219.172px;" id="el0h4eleu60bb8" class="animable"></path><path d="M242.55,232.41c-10.75-2.36-20.57-6.83-23-12.74.2.59.5,5.53,5.13,8.54,6.31,4.1,17.71,7.36,17.71,7.36Z" style="fill: rgb(240, 153, 122); transform-origin: 231.05px 227.62px;" id="el30f9z4odkqm" class="animable"></path></g><g id="freepik--arm--inject-46" class="animable" style="transform-origin: 185.6px 232.778px;"><path d="M209.09,239.88c-12.23.24-15,2.65-24.57,7.93-4.52,2.5-22.66,11.56-22.66,11.56l-9.68,17.89,3.39,4.9c7.24,1.72,16-2.46,30.08-4.26,5.62-.72,6.72.64,7.85,2.32,1.58,2.34,6.95,1.36,10.49-3.7C210.22,267.62,214.12,249.19,209.09,239.88Z" style="fill: rgb(55, 71, 79); transform-origin: 181.786px 261.223px;" id="elb9kkcpp3tzo" class="animable"></path><path d="M200.93,219.72c.18-2.91-.72-6.89-.69-9.69s1.06-7.23.93-10.73.3-3.89,1.66-3.75c1.11.1,2.8,2.28,2.71,6C205.48,204.34,204.76,217.36,200.93,219.72Z" style="fill: rgb(240, 153, 122); transform-origin: 202.891px 207.623px;" id="elfbyxv205jhd" class="animable"></path><path d="M206.23,197.43c-.69,2-2.09,4-2.68,6.09s-.42,3.11-.69,7.19c-.21,3.17.13,6-3.11,10.12-5.78,7.44-28.19,19.49-41,32.6-4.87,5-7.38,9.35-8.48,16.19-1.44,9,2.58,13.44,7.83,12.49a43.7,43.7,0,0,0,24.21-14.48c11.76-14.54,22.84-28.88,29.15-35.77,1.52-1.88,3.6-4.14,4.51-5.46,1.71-2.46,2.12-5.86,2.06-8.85-.08-5,1.45-8.94,1-11.15a78.29,78.29,0,0,1,1.68-9c.42-2,.91-3.72,0-4.59a2.75,2.75,0,0,0-.7-.41s0-.26.05-.37a11.45,11.45,0,0,0,0-2.19,2.8,2.8,0,0,0-.79-1.89,1.88,1.88,0,0,0-.66-.35s0-.2.1-.46a5.05,5.05,0,0,0,0-2.19,2.69,2.69,0,0,0-1.26-1.74,1.81,1.81,0,0,0-2.05.22,2.85,2.85,0,0,0-.47.68l-1,1.81c-.93-.56-1.43-.06-2.12.68-.83.91-1.51,2-2.25,2.93a10.31,10.31,0,0,0-1,1.41,11.35,11.35,0,0,0-.56,1.4C207.49,194,206.82,195.72,206.23,197.43Z" style="fill: rgb(255, 189, 167); transform-origin: 185.6px 232.613px;" id="elzlgw3ypzt0a" class="animable"></path><path d="M216,226.4a12.94,12.94,0,0,0,1.6-4.78,30.55,30.55,0,0,0,.22-5.07,33.61,33.61,0,0,1,.6-5.11c.16-.84.34-1.67.48-2.51a9,9,0,0,0,.18-2.53,16.18,16.18,0,0,1-.28,5.1,39.36,39.36,0,0,0-.48,5.06,27.71,27.71,0,0,1-.34,5.13A11,11,0,0,1,216,226.4Z" style="fill: rgb(177, 102, 104); transform-origin: 217.583px 216.4px;" id="el18kwhfjqv8" class="animable"></path><path d="M214,185.89c-.64,1.38-1.36,2.73-2.11,4.06l-1.12,2a6,6,0,0,0-.48,1c-.11.35-.21.72-.3,1.09-.41,1.46-.75,3-1.13,4.42l-.59,2.21a3.78,3.78,0,0,1-.4,1.09,4.43,4.43,0,0,1-.88.75,5.91,5.91,0,0,0,.77-.82,4,4,0,0,0,.28-1.08l.44-2.24c.31-1.49.66-3,1-4.46.11-.37.21-.74.34-1.11a6.55,6.55,0,0,1,.53-1.06c.39-.66.78-1.32,1.19-2Z" style="fill: rgb(240, 153, 122); transform-origin: 210.495px 194.2px;" id="ell2yth8nvptb" class="animable"></path><path d="M218.71,187.57a1.79,1.79,0,0,0-1.08.15,1.61,1.61,0,0,0-.58.88c-.32.7-.67,1.36-1,2a16.62,16.62,0,0,0-1.73,4.12l-1.25,4.36c-.21.72-.41,1.45-.58,2.18a8,8,0,0,0-.35,2.22,6.94,6.94,0,0,1,.11-2.27c.12-.75.28-1.49.44-2.23.34-1.48.75-2.94,1.15-4.39.11-.38.19-.71.32-1.1a11.52,11.52,0,0,1,.47-1.07c.34-.68.69-1.35,1.08-2s.77-1.31,1.13-2a1.77,1.77,0,0,1,.74-.89A1.72,1.72,0,0,1,218.71,187.57Z" style="fill: rgb(240, 153, 122); transform-origin: 215.402px 195.467px;" id="elu0uu6bj455n" class="animable"></path><path d="M220.06,192.37a.88.88,0,0,0-.73.24,2.26,2.26,0,0,0-.43.67,10.81,10.81,0,0,0-.56,1.54c-.17.52-.34,1-.53,1.58a13.61,13.61,0,0,0-.43,1.56c-.27,1.07-.53,2.15-.82,3.21a8,8,0,0,0-.55,3.22,3.76,3.76,0,0,1-.14-1.67l.31-1.63c.21-1.09.45-2.17.71-3.25a14.81,14.81,0,0,1,.48-1.62l.61-1.53a13.12,13.12,0,0,1,.7-1.53,2.68,2.68,0,0,1,.56-.65A.9.9,0,0,1,220.06,192.37Z" style="fill: rgb(240, 153, 122); transform-origin: 217.946px 198.358px;" id="elkkcacbju1s" class="animable"></path></g></g><g id="freepik--Bottom--inject-46" class="animable" style="transform-origin: 287.802px 340.66px;"><path d="M367.75,397.18a5.48,5.48,0,0,1-2,3.29c-2.33,2-5.57,2.61-8.65,2.82a29.26,29.26,0,0,1-8.76-.54,16.41,16.41,0,0,1-7.71-4,36.42,36.42,0,0,1-4.21-5.56,17.78,17.78,0,0,0-3.6-4,19.84,19.84,0,0,0-2-1.17c-.81-.49-1.58-1-2.39-1.5-2-1.19-4.27-2.22-5.75-4.07-2.59-3.21-2.05-7.48-2.07-11.31,0-.94,0-1.88,0-2.81l-.25-1.47c-1.06-7.25-7.79-30.57-9.15-35l26.12-3c.21,8.74,1,26.94,1.85,33a29.33,29.33,0,0,0,1.68,7.24c1.61,3.9,4.48,7.52,7.29,10.63a68.33,68.33,0,0,0,6.23,5.92,21.48,21.48,0,0,0,3.4,2.16,70.24,70.24,0,0,1,7,3.89C366.54,392.87,368,394.93,367.75,397.18Z" style="fill: rgb(255, 189, 167); transform-origin: 339.494px 366.133px;" id="elu54a9h7k8mj" class="animable"></path><path d="M319.74,384.32a7.81,7.81,0,0,0,.43,2.62c.67,1.38,6.13,4.12,8.2,5.07s4.34,2.32,6.39,6.42c2.2,4.38,6.36,7.46,11.08,9.47a33.65,33.65,0,0,0,19.92,1.49c8.27-1.72,8.81-6.64,8.81-6.64s.3-4.62-1.79-5.29S319.74,384.32,319.74,384.32Z" style="fill: rgb(38, 50, 56); transform-origin: 347.162px 397.285px;" id="el47229w6vewq" class="animable"></path><path d="M320.26,366.27c-.92.08-1.18.59-1,1.54a47.89,47.89,0,0,1,.3,6.65c-.16,2.42-.94,7,.2,9.86,4.53,4.33,11.45,5.26,14.92,9.8s6.73,10.23,17.67,12.09,19.1-1.83,21-5,0-6-7.08-9.59c-7.51-3.79-17.59-15.42-17.59-15.43a48.66,48.66,0,0,1-3.83-5.2c-1.14-1.72-1.68-3.94-2.54-5.83a4.75,4.75,0,0,0-1.74-2.32,4.88,4.88,0,0,0-2.89-.29,21.3,21.3,0,0,0-4.64.83,7.11,7.11,0,0,0-3.75,2.71c-.62,1-.92,2.1-1.63,3a4.1,4.1,0,0,1-4.1,1.39,4.77,4.77,0,0,1-3-2.6Z" style="fill: rgb(55, 71, 79); transform-origin: 346.597px 384.581px;" id="elg7lm7jttemu" class="animable"></path><path d="M345.21,403.81s-.36-7.61,7.72-12,13.15-1.86,15.71-.12c3.05,2.07,7.46,6.44,4.95,9.77-2.7,3.61-7.15,5.41-15.52,5.74S345.21,403.81,345.21,403.81Z" style="fill: rgb(250, 250, 250); transform-origin: 359.77px 398.295px;" id="el976uy4qz2xl" class="animable"></path><path d="M333.25,378.69a1,1,0,0,0,.74-.41c.9-1.33,6.73-6.35,12.54-4.9.28-.68-.23-1.35-1.43-2-6.08-.37-11.62,4.35-12.7,5.95a.89.89,0,0,0,.28,1.25A1,1,0,0,0,333.25,378.69Z" style="fill: rgb(250, 250, 250); transform-origin: 339.429px 375.027px;" id="el4e1xgss9fsu" class="animable"></path><path d="M350,377.62a2.86,2.86,0,0,0-1.69-2c-5.77,0-10.9,4.45-11.94,6a.88.88,0,0,0,.28,1.25,1,1,0,0,0,1.3-.27C338.78,381.33,344.32,376.58,350,377.62Z" style="fill: rgb(250, 250, 250); transform-origin: 343.109px 379.311px;" id="elxg92mo6xc3s" class="animable"></path><path d="M359.27,386.71a5.21,5.21,0,0,0-2.64-2.35c-6-.23-11.39,4.39-12.45,6a.87.87,0,0,0,.28,1.25,1,1,0,0,0,1.3-.27C346.71,389.9,353.16,384.39,359.27,386.71Z" style="fill: rgb(250, 250, 250); transform-origin: 351.647px 388.047px;" id="elfofp6bcp5ku" class="animable"></path><path d="M341.1,387.37a1,1,0,0,0,.74-.41c.88-1.31,6.6-6.22,12.34-4.94a3.21,3.21,0,0,0-2-2c-5.76,0-10.9,4.45-11.94,6a.89.89,0,0,0,.28,1.25A1,1,0,0,0,341.1,387.37Z" style="fill: rgb(250, 250, 250); transform-origin: 347.136px 383.699px;" id="el0gkebf95uqug" class="animable"></path><path d="M240.94,344.93c10.69,17.12,33.39,18,46.9,10.51,23.94-13.21,41.6-71,39-85-2.67-14.1-18-21.7-41.14.68-12.41,12-19.08,24.27-28,40.41-4.07,1.83-17.79,11-21,21A36.28,36.28,0,0,0,240.94,344.93Z" style="fill: rgb(55, 71, 79); transform-origin: 281.897px 308.45px;" id="elqdfye9zwutg" class="animable"></path><path d="M304.6,275.12c-4.35,5.07-15.27,29.65-16.56,44.71-.36,4.24-6.6,19.92-12.42,26.42-10.25,11.46-25.42,8.29-30.85,3.63,11.4,12.4,31.1,12.17,43.07,5.56,15.5-8.55,28.51-37.2,35.05-60.13Z" style="fill: rgb(38, 50, 56); transform-origin: 283.83px 317.526px;" id="el8mthu5uz2b" class="animable"></path><path d="M317,257.87c7.61,2.07,15.13,11.08,17.78,38.47,2.41,24.88,3.38,38.92,3.38,38.92a36.69,36.69,0,0,1-24.6,5.35s-3.2-9.12-7-22.48-6.77-27-3-39.86A43.39,43.39,0,0,1,317,257.87Z" style="fill: rgb(55, 71, 79); transform-origin: 319.989px 299.41px;" id="eldrgflq1iknj" class="animable"></path><path d="M340.15,411.26a5.45,5.45,0,0,1-2,3.29c-2.34,2-5.58,2.61-8.66,2.82a29.25,29.25,0,0,1-8.76-.53,16.59,16.59,0,0,1-7.71-4,36.51,36.51,0,0,1-4.21-5.57,17.78,17.78,0,0,0-3.6-4,21.88,21.88,0,0,0-2-1.17c-.81-.48-1.58-1-2.39-1.49-2-1.2-4.27-2.23-5.75-4.07-2.59-3.22-2-7.48-2.07-11.32,0-.93,0-1.87,0-2.81l-.25-1.47c-1.06-7.25-7.79-30.57-9.15-35l26.12-3c.21,8.73,1,26.93,1.85,33a29.43,29.43,0,0,0,1.68,7.24,38.81,38.81,0,0,0,7.3,10.62,65.75,65.75,0,0,0,6.22,5.93,21.48,21.48,0,0,0,3.4,2.16,70.24,70.24,0,0,1,7,3.89C338.94,407,340.44,409,340.15,411.26Z" style="fill: rgb(255, 189, 167); transform-origin: 311.893px 380.214px;" id="elvked95lq2mk" class="animable"></path><path d="M292.14,398.4a8.14,8.14,0,0,0,.43,2.63c.67,1.38,6.13,4.12,8.2,5.07s4.34,2.32,6.4,6.42c2.19,4.38,6.36,7.46,11.07,9.46a33.57,33.57,0,0,0,19.92,1.5c8.27-1.73,8.81-6.65,8.81-6.65s.3-4.62-1.78-5.28S292.14,398.4,292.14,398.4Z" style="fill: rgb(38, 50, 56); transform-origin: 319.563px 411.37px;" id="elr4x2fv3al9" class="animable"></path><path d="M292.66,380.35c-.92.09-1.18.6-1,1.55a47.8,47.8,0,0,1,.3,6.65c-.16,2.42-.94,6.94.2,9.85,4.53,4.34,11.46,5.27,14.93,9.81s6.72,10.23,17.66,12.09,19.1-1.84,21-5,0-6-7.08-9.59c-7.51-3.79-17.59-15.43-17.59-15.43a48.66,48.66,0,0,1-3.83-5.2c-1.14-1.73-1.68-3.95-2.54-5.84a4.74,4.74,0,0,0-1.74-2.32,4.88,4.88,0,0,0-2.89-.29,20.73,20.73,0,0,0-4.64.84,7,7,0,0,0-3.75,2.7c-.62,1-.92,2.11-1.63,3a4.1,4.1,0,0,1-4.1,1.39,4.8,4.8,0,0,1-3-2.6Z" style="fill: rgb(55, 71, 79); transform-origin: 318.997px 398.665px;" id="eli8kj1x3li2d" class="animable"></path><path d="M317.61,417.9s-.36-7.62,7.73-12,13.14-1.86,15.71-.13c3.05,2.07,7.45,6.44,4.94,9.78-2.7,3.6-7.15,5.4-15.51,5.74S317.61,417.9,317.61,417.9Z" style="fill: rgb(250, 250, 250); transform-origin: 332.171px 412.387px;" id="elghabny01aj" class="animable"></path><path d="M305.66,392.77a.94.94,0,0,0,.73-.41c.9-1.32,6.73-6.34,12.54-4.9.28-.67-.23-1.35-1.43-2-6.07-.38-11.61,4.35-12.69,5.94a.88.88,0,0,0,.27,1.25A1,1,0,0,0,305.66,392.77Z" style="fill: rgb(250, 250, 250); transform-origin: 311.831px 389.106px;" id="el0pnea5dhj2o" class="animable"></path><path d="M322.36,391.71a2.86,2.86,0,0,0-1.69-2c-5.77,0-10.9,4.44-11.94,6A.87.87,0,0,0,309,397a1,1,0,0,0,1.3-.27C311.18,395.42,316.72,390.66,322.36,391.71Z" style="fill: rgb(250, 250, 250); transform-origin: 315.455px 393.421px;" id="elsi9x2y343b" class="animable"></path><path d="M331.67,400.79a5.25,5.25,0,0,0-2.64-2.35c-6-.22-11.38,4.39-12.45,6a.86.86,0,0,0,.28,1.24,1,1,0,0,0,.57.15,1,1,0,0,0,.73-.41C319.11,404,325.56,398.48,331.67,400.79Z" style="fill: rgb(250, 250, 250); transform-origin: 324.048px 402.132px;" id="elu25dffw4qe" class="animable"></path><path d="M313.5,401.45a.94.94,0,0,0,.74-.41c.88-1.3,6.6-6.22,12.35-4.94a3.24,3.24,0,0,0-2-2c-5.76,0-10.9,4.44-11.94,6a.88.88,0,0,0,.28,1.24A.92.92,0,0,0,313.5,401.45Z" style="fill: rgb(250, 250, 250); transform-origin: 319.547px 397.779px;" id="elu6nhy5qqi9" class="animable"></path><path d="M210.52,360.82c18.25,15.07,36.21,16.16,49.72,8.71,23.94-13.21,42-74.39,39.32-88.33-2.67-14.11-17.41-17-40.54,5.4-12.41,12-21.93,24-33,40.89-4.07,1.84-21.77,10.95-25,21A42.91,42.91,0,0,0,210.52,360.82Z" style="fill: rgb(69, 90, 100); transform-origin: 250.422px 322.11px;" id="elruqr3bpe34s" class="animable"></path><path d="M277,289.2c-4.34,5.08-7.76,33-7.45,48.07.27,12.81-4.81,24.06-20.15,29.36-14.52,5-28,1.08-33.15-1.52,15.07,11,32,11,44,4.42,15.5-8.56,28.51-37.21,35.05-60.14Z" style="fill: rgb(55, 71, 79); transform-origin: 255.775px 331.609px;" id="elvqvs685dlk8" class="animable"></path><path d="M291,270.63c7.61,2.06,15.58,11.14,17,35.73,1.44,24.95,2.62,43,2.62,43a36.62,36.62,0,0,1-24.6,5.35s-3.2-9.12-7-22.47-6.77-27-3-39.87S291,270.63,291,270.63Z" style="fill: rgb(69, 90, 100); transform-origin: 292.449px 312.841px;" id="el6b33y3lxikk" class="animable"></path></g></g></g><g id="freepik--Ghosts--inject-46" class="animable animator-active" style="transform-origin: 248.487px 254.443px;"><g id="freepik--Monsters--inject-46" class="animable" style="transform-origin: 162.07px 181.18px;"><path d="M216.94,126c-.65,2.45-1.91,4.77-6.26,5.12a13.47,13.47,0,0,0-1.43-8.13l-3.5,3.78-2.67-6.84a45.17,45.17,0,0,0-9.37,6.88l-2.61-7.22-6.61,5.12s-1.86-8.15-6.3-14.32A19.46,19.46,0,0,1,173.1,118a13.61,13.61,0,0,0-3.56-5.5s-10.29,3.81-11.08,10.23a16.67,16.67,0,0,1,9.36-5l2.59,8.8s5.32-1.6,7.7-5.09c1.38,3.37.69,7.86-.46,12.62l4.74-2.49.63,5.27a27,27,0,0,0,7.88-3.94s1.72,5,1.35,7.32l8.8-3.19s-1.61,7-5.5,8.07-8.32.93-26.41-.1c-10-.57-18.83,1.76-28.63,8.57-8.07,5.61-13.59,13-18.63,28.13-1.71,5.13-3,17.57,1.07,26.61,7.79,17.1,17.93,24.44,21.24,40.94a19.81,19.81,0,0,1-2.45,12.63c-1,1.61-3.43,4.47-4.42,6.1-1.91,3.15-1.49,5.83-1.16,9.36a19.94,19.94,0,0,1-.21,7.19c-1.25,4.46-5.52,7.75-6.14,12.34a9.28,9.28,0,0,0,2.4,7.33,11.84,11.84,0,0,0,6.94,3.58,10.06,10.06,0,0,0,5.49-.55c2.49-1.06,4.29-3.31,6.71-4.53a9.32,9.32,0,0,1,7.78-.23c2.24,1,4.24,2.85,6.67,2.75s4.5-2.27,7-2.37c3.4-.14,7,4.19,7.6,7.27a12.72,12.72,0,0,1-.55,6,5.44,5.44,0,0,0-.4,2.43c.24,1.37,1.59,2.26,2.17,3.52a22.63,22.63,0,0,1,.66,2.35c.45,1.4,3.27,3.94,4.92,3.16a4.83,4.83,0,0,1-4.11.22c-1.13-.64-2.54-1.2-3.11-2.48-.3-.69-.31-1.48-.64-2.16a5.06,5.06,0,0,0-2.07-1.89,3.72,3.72,0,0,1-1.17-1c-1-1.37-.4-3.47-.86-5-.92-3.11-5-4.73-7.9-3.38-1.61.74-2.9,2.18-4.63,2.58-2.49.59-5.05-1.15-7.58-.75-2.3.37-3.92,2.36-5.7,3.87a16.35,16.35,0,0,1-13.24,3.38,24.47,24.47,0,0,1-12.64-6.7c-3-3.13-4.94-7.37-8.83-9.55-1.51-.86-3.24-1.33-4.62-2.38-4.44-3.4-2.51-8.95.41-12.44,2.14-2.57,5.14-5.61,5.08-9.19,0-3.37-2.16-6.48-2.13-9.85,0-3.88,2.06-7.24,1.64-11.22a16.61,16.61,0,0,0-4.78-9.52c-3.39-3.5-7.78-5.82-12-8.25l-2.57-1.51c-8.37-5-16.4-10-23-17.29-5.66-6.26-11.35-13.64-14-21.79-10.08-31.46,11.76-69.11,28.5-93.19C95.68,96,109.45,78.94,120,68.61c11.57-11.34,57.88-32.71,61.61-33.84s18.9-.35,23.05.42c8.34,4.8,11.28,7,12.31,8.15s1.44,11.86,1.22,11.21-3.52-9.45-3.52-9.45l-13.15-5.47s6.64,6.69,7.94,8.64,3.14,12,3.14,12l-4.43-9.76L197.34,45l5.38,6.55,1,6.31-4.31,8.43L200.57,57l-8.27-9.56L182.1,44,139.61,73.61l-5.49,11.57q-3.18,6.67-6.35,13.36c18.94-11.24,42.47-11.17,49.55-9.92,22.51,4,29.47,8.54,36.25,19.82C217.48,115,217.6,123.53,216.94,126Z" style="fill: rgb(38, 50, 56); transform-origin: 137.22px 181.18px;" id="elp88oi0v3jh" class="animable"></path><path d="M193.75,97.91s38.63-14.71,44.89-16.74c8.77-.39,19.46,5.29,21.52,5.94s7.18,10.27,7.66,11.36-.54,9.6-.54,9.6l-1.52-9L257,89.76l4.23,10.33s-3.44,11.72-4,12.09-5.79,2.21-5.79,2.21l3.65-4.87,1.43-9.64-8.17-9.12,3.51,11.64-2.56,5-10.51,2.76,8-5.25.25-5L239.3,89.78l-30.89,19.16" style="fill: rgb(38, 50, 56); transform-origin: 230.849px 97.7704px;" id="elj00svgqs5r" class="animable"></path><path d="M193.75,110.49c-3.59-2-8.19-8.86-8.57-10s-3.51,4-1,6.62S193.75,110.49,193.75,110.49Z" style="fill: #FB6222; transform-origin: 188.482px 105.409px;" id="el0xcne20od4y9" class="animable"></path><path d="M199.9,112.26c4.23.75,10.46-2.56,10.72-1.6a3.29,3.29,0,0,1-2.38,4.17C205.67,115.49,201,113.27,199.9,112.26Z" style="fill: #FB6222; transform-origin: 205.333px 112.717px;" id="el79193myvsbq" class="animable"></path><path d="M84.38,238.86A21.2,21.2,0,0,0,91.06,244c2.58,1.25,5.4,2,8,3.18s5.08,3.1,6.07,5.79c.51,1.38.59,2.9,1.18,4.25.88,2,2.78,3.46,3.3,5.56.77,3.08-1.71,6.11-1.59,9.28.08,2,1.17,3.8,1.8,5.7s.64,4.33-1,5.53c1.09-1,.93-2.79.2-4.06s-1.87-2.27-2.66-3.51a7.42,7.42,0,0,1-1-5.34c.39-2.08,1.66-4.32.58-6.14-.92-1.57-3.14-1.91-4.19-3.38-1.51-2.11.12-5.1-.57-7.59-.57-2.06-2.57-3.34-4.48-4.3a68.84,68.84,0,0,1-6.71-3.5,12.23,12.23,0,0,1-4.94-5.57l3.22,2.66" style="fill: rgb(38, 50, 56); transform-origin: 97.2966px 261.075px;" id="elts5uzoie7sm" class="animable"></path><path d="M145.92,301.45c.75-.84,1.34-1.82,2.09-2.67a2.28,2.28,0,0,1,1.07-.78c.72-.18,1.4.33,2.1.6a3.29,3.29,0,0,0,2.21.06,14.55,14.55,0,0,0,1.5-.7,2.37,2.37,0,0,1,2.29-.07c.22.15.4.35.61.51,1.05.76,2.47.18,3.56.78a17.83,17.83,0,0,1,1.42,1.23,4.88,4.88,0,0,0,1.95.86,2.18,2.18,0,0,0,2.38-1c-.11.26-.95.37-1.19.39a2.93,2.93,0,0,1-1.4-.22c-.86-.36-1.35-1.89-1.8-2.68a6.39,6.39,0,0,0-1-1.43,2.32,2.32,0,0,0-1.51-.78c-.34,0-.68.06-1,.05-1.13-.06-1.93-1.11-3-1.58a5,5,0,0,0-1.84-.37,2.56,2.56,0,0,0-1.29.18,4.71,4.71,0,0,0-1.21,1.15A3.82,3.82,0,0,1,150,296c-.77.15-1.59.05-2.36.25-2.4.61-2.25,3-3.1,4.86a5.74,5.74,0,0,1-3.63,2.9C142,305,145.19,302.26,145.92,301.45Z" style="fill: rgb(38, 50, 56); transform-origin: 154.005px 298.927px;" id="elzhkvwaq03rj" class="animable"></path></g><g id="freepik--monsters--inject-46" class="animable" style="transform-origin: 332.242px 225.243px;"><path d="M425.6,326.57a68,68,0,0,0-7.34-7.26c-3.08-2.84-6-5.84-8.93-8.84-3.22-3.3-6.24-7.19-7.2-11.8-1-4.84.59-11.45,3.28-15.35,8.32-12,17.26-20.86,22.53-29.47,7.9-12.89,9.21-24.25,9-35.24-.48-21.66-14.11-41.46-44.5-65.79-11.47-9.19-24.26-49.5-27.61-54-9.64-13-51.14-39.26-54.79-40.61s-18.85-1.46-23-.93c-8.61,4.29-11.68,6.35-12.76,7.4s-2.15,11.76-1.89,11.12,4.08-9.22,4.08-9.22l13.44-4.69s-7,6.28-8.44,8.16-3.84,11.81-3.84,11.81l5-9.49,11.12-4.83-5.75,6.22L286.56,80l3.8,8.67-.62-9.4,8.83-9.06L309,67.42l41,40.15,4.67,37.53c-13.33-6.52-31.43-8-38.57-7.18-22.7,2.62-30.09,6.05-38.51,16.78-3.67,4.69-6.61,11.54-5.84,17.19a7.17,7.17,0,0,0,6.44,6.23,17.3,17.3,0,0,1,1.92-8.77l3.27,4,3.07-6.67a44.94,44.94,0,0,1,8.94,7.42l3-7.05,6.29,5.5a30.53,30.53,0,0,1,5.93-12.81s3.53,5.61,5.56,9.54L321,158.79s2.3,2.28,2.64,4.41c3.56-4.91,3.47-8.74,4-10.94.44.85,2.61,11.61-1.92,19.16l-3.49-3.37-2.4,12.23s-3.91-2-8.3-4.84l-.59,6.81-4.58-2.76-.95,5.22a26.81,26.81,0,0,1-7.63-4.4s-2,4.86-1.78,7.24l-8.59-3.71s1.66,6.6,5.49,7.87,8.48,2.61,26.18,1.36c10-.71,21.81,3.57,29.38,8.75,10.7,7.33,18.43,20.69,21.18,32.36,2.15,9.08,1.59,18.13-2.45,26.6-4.21,8.84-11.08,15.74-13.49,25.51-1.78,7.17-1.34,15,2.11,21.56,3.67,6.95,10.35,11.83,17.3,15.51s14.38,6.42,21.1,10.5c3.8,2.32,9.12,5.74,10.26,10.38.81,3.27-1.52,7.61-5.11,8-2.34.23-4.87-1.14-6.87-2.24-2.16-1.2-4-2.8-6.08-4.18-2.72-1.85-6-3.34-9.21-2.59-2.05.49-3.67,2-5.72,2.34a61,61,0,0,1-7,.24,5,5,0,0,0-2.17.46,3.25,3.25,0,0,0-1.38,1.46,10.25,10.25,0,0,1-.5,1.06c-.59.91-1.77,1.27-2.46,2.11-1,1.14-.93,2.94-.88,4.34a25.82,25.82,0,0,1,0,5.2c-.32,2-1.34,3.82-1.94,5.76s-.7,4.25.61,5.8a9.51,9.51,0,0,0,2,1.59,21.9,21.9,0,0,1,5.6,5.47c1.11,1.57,2.06,3.34,3.63,4.44,3,2.1,7.08,1.13,10.59.09s7.61-2,10.58.15a1.31,1.31,0,0,1,.47.52c.21.52-.26,1.06-.38,1.62-.28,1.27,1.25,2.18,1.67,3.41a3,3,0,0,1-1.77,3.35,8.6,8.6,0,0,1-4.07.48,10.28,10.28,0,0,0,5.28.07c1.68-.59,3.05-2.45,2.45-4.13-.24-.68-.76-1.23-1.05-1.89a10.44,10.44,0,0,1-.41-3.36,8.32,8.32,0,0,0-6.89-7.1,18.41,18.41,0,0,0-5.37-.37c-1.84.31-3.51,1.84-5.47,1.21-1.66-.53-2.44-2.48-2.53-4.23s.29-3.52-.06-5.24a12.59,12.59,0,0,0-2.7-5,2.39,2.39,0,0,1-.67-1.61c.09-.68.73-1.12,1.31-1.48l5.24-3.23a10.77,10.77,0,0,1,3.18-1.5c2.8-.63,5.57,1,7.81,2.83s4.5,3.88,7.35,4.27c2,.29,4.11-.35,6.17-.22,3.56.21,6.59,2.64,10,3.55a6.82,6.82,0,0,0,4.24-.07c2-.81,3.18-2.82,4.66-4.38a12.59,12.59,0,0,1,3.73-2.7,33.32,33.32,0,0,0,3.79-1.73c2.53-1.62,3.75-4.59,4.84-7.39C432.3,341.11,431.27,333.63,425.6,326.57Z" style="fill: rgb(38, 50, 56); transform-origin: 354.293px 225.243px;" id="eli3c2t909jv" class="animable"></path><path d="M423.38,319.1a15.8,15.8,0,0,0,5.07,2.55,4.85,4.85,0,0,1,3.05,2.54,14,14,0,0,1,.25,3.31c.22,2.06,1.71,3.51,2.78,5.16s2.33,3.12,2.53,5.3a3.51,3.51,0,0,1-.28,2,7.54,7.54,0,0,1-1.3,1.53,7.16,7.16,0,0,0-1.77,3.92c-.23,1.7.36,3.42-.07,5.11a4.48,4.48,0,0,1-3.13,3.16c1.75-.15,3.75-.44,4.65-1.94s.36-3.5,1.49-4.74c.94-1,2.61-1,3.61-2,1.8-1.71,1.23-3.9.92-6-.43-3,1.38-6.22,0-8.88-.92-1.75-3-2.75-3.57-4.65a10.86,10.86,0,0,1-.15-2.68,8,8,0,0,0-2.93-6,9,9,0,0,0-5.6-1.68c-.92,0-1.93-.21-2.84-.17a4.62,4.62,0,0,1-3.1-.6,26.17,26.17,0,0,1-2.61-2.22,5,5,0,0,0-3.06-1.38c-.51,0-1,.11-1.52.1a4.23,4.23,0,0,1-3.49-1.73,3.36,3.36,0,0,0,1.48,1.85,9.53,9.53,0,0,0,2.74,1.05,6.35,6.35,0,0,1,3.06,1.76,20.4,20.4,0,0,1,2.36,3.61A7.47,7.47,0,0,0,423.38,319.1Z" style="fill: rgb(38, 50, 56); transform-origin: 427.009px 331.395px;" id="el7meb5ibtt5r" class="animable"></path><path d="M368.3,340.83A8.06,8.06,0,0,1,367,342a5.18,5.18,0,0,1-3.61.21,8.28,8.28,0,0,0-1.85-.22,5.38,5.38,0,0,0-4.08,2.49c-.45.65-.79,1.36-1.28,2a3.2,3.2,0,0,1-1.41,1,3,3,0,0,0-1.4.77c-.82.9-.26,2,0,3s.25,2.34-.6,3a3.17,3.17,0,0,0-.41-2.8,15,15,0,0,1-1.46-2.54,4,4,0,0,1,1.85-4.64,5.38,5.38,0,0,0,1.35-.75c.66-.66.61-1.71.74-2.62.34-2.32,2.7-4.4,4.93-3.7.57.18,1,.64,1.55.77a6.68,6.68,0,0,1,2.05.63c.55.32,1.08.82,1.71.73a2.27,2.27,0,0,0,1.15-.8,2.94,2.94,0,0,1,2.45-1.12,4.63,4.63,0,0,0,1.31.27,2.52,2.52,0,0,0,1-.57,4.73,4.73,0,0,1,3.62-.74,5.17,5.17,0,0,1,3.1,2c-.15-.2-.79-.32-1-.38a4.31,4.31,0,0,0-1.23-.18,10,10,0,0,0-2.37.33,11,11,0,0,0-4.79,2.52Z" style="fill: rgb(38, 50, 56); transform-origin: 364.219px 345.263px;" id="elq97wv3xetx" class="animable"></path><path d="M297,145.25s-37.69-17-43.82-19.36c-8.74-.91-19.75,4.13-21.84,4.66s-7.77,9.83-8.32,10.89,0,9.61,0,9.61l2-8.89,9.28-8.78-4.83,10.06s2.74,11.91,3.26,12.31,5.65,2.54,5.65,2.54l-3.36-5.07-.85-9.71,8.68-8.62-4.18,11.41,2.26,5.18,10.33,3.38-7.68-5.72.06-5,8.35-9.68,29.71,21" style="fill: rgb(38, 50, 56); transform-origin: 259.888px 142.035px;" id="elx87xmhwx24" class="animable"></path><path d="M298.62,158.38c3.6-1.63,8.49-7.74,8.93-8.77s3.16,3.86.59,6.14S298.62,158.38,298.62,158.38Z" style="fill: #FB6222; transform-origin: 303.925px 153.925px;" id="elspnq8zu5vdk" class="animable"></path><path d="M290.81,159.55c-4,.47-9.7-3-10-2.1a3.11,3.11,0,0,0,2,4.06C285.2,162.27,289.69,160.44,290.81,159.55Z" style="fill: #FB6222; transform-origin: 285.712px 159.495px;" id="elka4g6him9el" class="animable"></path></g><g id="freepik--monsters--inject-46" class="animable" style="transform-origin: 152.383px 348.602px;"><path d="M96.13,327.45c2.87,5.34,4,11.71,9.45,17.19,9.81,9.82,25.67,5.12,41.6,3.86a75.35,75.35,0,0,1,25.8,2.43c7.32,2,13.34,6.77,18.23,12.56,6.39,7.55,8.25,17.56,13.35,25.93,3.23,5.31,8.56,10,14.78,10,3.86,0,7.32-1.86,11-2.55a45.64,45.64,0,0,1,10.42-.78,7.6,7.6,0,0,1,5.67,2.89c1,1.42,1.31,3.23,2.21,4.72a7,7,0,0,0,9.76,1.91,16.87,16.87,0,0,1,2.95-2.28c.65-.28,1.36-.37,2-.6a5.39,5.39,0,0,0,3.44-3.8,5.33,5.33,0,0,0-.69-4,4.84,4.84,0,0,0-.71-.91c-1-1-2.34-1.57-3.2-2.66-1.46-1.85-1.06-4.58,0-6.67a10.49,10.49,0,0,1,4.86-4.81,7.77,7.77,0,0,1,6.71.07c.91.48,1.7,1.16,2.6,1.64a3.52,3.52,0,0,0,2.95.35,1.79,1.79,0,0,0,.91-2.52,2.83,2.83,0,0,1-.45,3.72,4.21,4.21,0,0,1-3.88.74c-1.8-.5-3.31-1.9-5.17-2.07a4.07,4.07,0,0,0-2.38,7.58c1.06.6,2.48.81,3.08,1.87a5.43,5.43,0,0,1,.38,2.2c.2,2.09,1.47,3.89,2.52,5.7s1.94,3.95,1.32,5.95c-1,3.13-4.86,4.1-7.24,6.35-2.17,2-3.05,5.16-5.2,7.21-2.76,2.64-7.26,2.93-10.68,1.25-2.76-1.35-4.87-3.72-7.62-5.07-1.22-.6-2.5-.92-3.71-1.53a10.44,10.44,0,0,0-5.3-1.41c-2.27.16-4.26,1.5-6.2,2.69a61.91,61.91,0,0,1-8.81,4.5c-5.08,2.1-17.05,6.49-21.38,1.15-1-1.23-1.47-2.82-2.43-4.08-2.24-2.94-6.44-3.44-9.47-5.55-4.94-3.45-5.91-10.43-9.94-14.91-4.48-5-12.05-6-18.61-4.64s-12.47,4.77-18.58,7.49c-12.65,5.63-26.67,8.48-40.43,7-19.2-2-39.69-11.78-48.2-30-5.89-12.56-4.74-28.46-.41-40A41.38,41.38,0,0,1,58.36,325a25.35,25.35,0,0,1,23.56-8.18A20,20,0,0,1,96.13,327.45Z" style="fill: rgb(38, 50, 56); transform-origin: 164.258px 369.603px;" id="el3u0psx5a5h" class="animable"></path><path d="M54,361.73c-13.12-21.79-31.25-49.66-29.88-52,7-12.11,20.9-31.74,23.58-34.57S64,265.49,68,264.12c9.62.05,13.28.54,14.72,1s7.12,9.61,6.61,9.15-7.74-6.48-7.74-6.48l-14.13,1.73s9.08,2.54,11.17,3.59,8.66,8.9,8.66,8.9l-8.67-6.29-12.11.57,7.91,3,4,5,.42,9.46-3.6-8.71-11.91-4.23-10.55,2.1L39.24,310.13l22.15,25.51" style="fill: rgb(38, 50, 56); transform-origin: 56.7045px 312.925px;" id="el8t6y6x1oc3m" class="animable"></path><path d="M177.22,401.56a35.1,35.1,0,0,1,1.09,4.82c.62,3,1.47,7.19,5.07,7.89,1.85.36,4.06-.4,5.48.84,1.83,1.61.49,4.95,2,6.87s4.5,1.16,6.61,2.26a18.16,18.16,0,0,1,2.14,1.58c2.81,2,6.7,1.93,10,.86,2.38-.78,4.86-2,7.27-1.31a37.92,37.92,0,0,0-10.32,5.39c-1.37,1-2.78,2.17-4.48,2.31-2.49.2-4.56-1.83-6.93-2.64s-4.77.07-7.17-.13c-1.87-.16-3.93-.73-4.84-2.36-1.07-1.93,0-4.39-.54-6.55-.46-1.93-2.09-3.32-3.68-4.51-1.25-.94-2.62-2-3-3.49-.26-1.17.3-2.11.3-3.2s-.88-1.67-1-2.65.77-2.08,1-3.17a4.53,4.53,0,0,0,0-1.72A7.55,7.55,0,0,0,173,397.3a5.84,5.84,0,0,1,4,3.64C177.06,401.14,177.14,401.35,177.22,401.56Z" style="fill: rgb(38, 50, 56); transform-origin: 194.94px 415.192px;" id="elrz1f71j63nn" class="animable"></path></g><g id="freepik--ghosts--inject-46" class="animable" style="transform-origin: 248.487px 319.792px;"><path d="M69.94,236.21c.3.09.59.19.89.3a15.1,15.1,0,0,1,9,9.27c.41,1.22.66,2.5,1.16,3.69a9.52,9.52,0,0,0,3.66,4.3c1.5.95,3.26,1.46,4.7,2.51a7.89,7.89,0,0,1,1.7,10.57,7.2,7.2,0,0,0-2.17-7.73C86,256.78,81.74,257,78.8,254.74c-3.41-2.57-4.11-7.63-7.45-10.3-2.39-1.91-5.72-2.22-8.75-1.78s-5.94,1.53-8.94,2.12c-6.56,1.3-14-.12-18.5-5.07-4-4.38-5-10.64-5.26-16.54s-2.92-9.68-6.85-13.82a27.52,27.52,0,0,1-7.2-15.94A32.8,32.8,0,0,1,20,174.12a20,20,0,0,1,6.73-7.51,10.56,10.56,0,0,1,9.74-.93,10.57,10.57,0,0,1,5.4,6.71,20.39,20.39,0,0,1,.3,8.8,57,57,0,0,0-1,7.43c-.09,5,2.88,9.28,5.09,13.52a34.23,34.23,0,0,1,2.33,5.17c1.24,3.86.54,7.47.07,11.36-.45,3.73-1.46,7.56.71,11,2.06,3.28,6.15,4.64,10,5.13C62.9,235.26,66.55,235.19,69.94,236.21Z" style="fill: rgb(224, 224, 224); transform-origin: 54.0368px 215.876px;" id="elx7hmhw4llje" class="animable"></path><path d="M57.6,249a3.61,3.61,0,0,1,2.25-.13,4.92,4.92,0,0,0-3.28,0,13,13,0,0,0-3,1.53,7.41,7.41,0,0,1-3,1.39,6,6,0,0,1-3.3-.79,13.06,13.06,0,0,0-3.18-1.3,21.77,21.77,0,0,0-4.42.08A5.56,5.56,0,0,1,36,248.6c-1-.83-1.2-2-2-3s-2.07-1.52-3-2.44a4.58,4.58,0,0,1-1.21-3.58c0,.3-.42.75-.52,1.08a4.42,4.42,0,0,0-.21,1.3,4.55,4.55,0,0,0,.71,2.51c1,1.61,3,2.41,3.06,4.58a8.16,8.16,0,0,0,0,2.66,2.8,2.8,0,0,0,2.45,1.56,21,21,0,0,0,3.06-.19,3.71,3.71,0,0,1,2.86.82c.53.51.66,1,1.42,1.33a4.54,4.54,0,0,0,2,.24,14.56,14.56,0,0,1,3.29-.16c.66.11,1.29.39,2,.44a4.37,4.37,0,0,0,3.64-2.1c.49-.71.86-1.49,1.33-2.21a6.32,6.32,0,0,1,2.1-2.11A4.22,4.22,0,0,1,57.6,249Z" style="fill: rgb(224, 224, 224); transform-origin: 44.4547px 247.665px;" id="ele9kydo8bfur" class="animable"></path><path d="M380.63,416.71a22.23,22.23,0,0,0,.77-2.35,4.92,4.92,0,0,0-1-2.76,3.24,3.24,0,0,1-.57-2.83,2.83,2.83,0,0,1,.84-1,6.31,6.31,0,0,1,2.6-1.23,23.6,23.6,0,0,0,2.4-.43,2.3,2.3,0,0,0,1.68-1.62c.25-1.33-.55-2.75-.29-4.15a3.16,3.16,0,1,1,6.18,1.35,3.53,3.53,0,0,0-1-2.83,2.1,2.1,0,0,0-2.82,0c-1,1-.31,2.73.35,4a4.13,4.13,0,0,1,.54,3.32,5.36,5.36,0,0,1-2.68,2.12c-1.21.57-2.72,1.05-3.11,2.33a3.7,3.7,0,0,0-.12,1l-.06,1.85a2.86,2.86,0,0,0,.08,1,2.62,2.62,0,0,0,1,1.27,4.73,4.73,0,0,0,4.57,1c2.31-1,2.89-4.36,5.24-5.22.47-.17,1-.23,1.46-.36,2.56-.71,3.36-3.08,3.23-5.46-.16-3-.82-5.91-.92-8.89-.13-3.67.81-7.72,3.81-9.84,2.82-2,6.62-1.74,10.06-1.34,2.4.28,5,.53,7-.8,1.69-1.12,2.56-3.09,3.38-4.94,1.79-4,4.07-8.13,8-10,2.47-1.18,5.29-1.31,7.94-2,13.38-3.48,14.64-18.22,11.89-29.54-1.07-4.4-2.41-8.79-2.47-13.32s1.38-9.34,4.93-12.15,8.18-2.92,12.4-1.82c4.73,1.22,8.71,7,10.79,11.06A44.12,44.12,0,0,1,481,338.11c0,.48.08,1,.12,1.45.66,9.7-.83,19.74-5.8,28.07-5.22,8.75-14.7,15.3-24.89,15.31-5.46,0-11.46-1.65-16,1.36-3.93,2.61-5.53,8.09-9.87,9.93-4,1.68-9.12-.23-12.48,2.47a6.62,6.62,0,0,0-2,4.32c-.5,3.11-.43,6.31-1.19,9.36s-2.6,6.11-5.58,7.14c-2.19.76-4.43.09-6.44,1.36-1.66,1-3,2.59-4.8,3.38a6.38,6.38,0,0,1-5.63-.34,15.3,15.3,0,0,0-1.89-1.14,19.53,19.53,0,0,0-2-.51A3.05,3.05,0,0,1,380.63,416.71Z" style="fill: rgb(224, 224, 224); transform-origin: 430.493px 366.589px;" id="el8kx8pb143rr" class="animable"></path><path d="M274.06,436.9a19.39,19.39,0,0,0,1.84-2.75c1.29-2.29,2.24-4.75,3.49-7a8.68,8.68,0,0,1,3.23-3.72c7.09-3.84,9,12.51,15.91,7.26,1.76-1.33,2-1.56,4.23-.87a2.23,2.23,0,0,1,1.68,1.59c0,.27,0,.55,0,.82.13.94,1.09,1.5,1.9,2s1.68,1.31,1.46,2.24a4,4,0,0,1-.81,1.26,3.36,3.36,0,0,0,.42,4.16,3.72,3.72,0,0,0,4.21.61,4.2,4.2,0,0,1-2.63-.91c-2.38-1.92,1.54-3.61,1.83-5.56.26-1.71-1.54-3-1.9-4.71a23.15,23.15,0,0,0-.24-2.79,3.46,3.46,0,0,0-1.14-1.53,6.16,6.16,0,0,0-3-1.21c-1.1-.27-1.68-1.12-2.74-1.51-1.71-.62-3.39,1.76-5.13,1.25a3.17,3.17,0,0,1-1.14-.71,12.32,12.32,0,0,1-2.35-2.38,31.56,31.56,0,0,1-1.79-3.81c-2.28-4.5-6.91-6-11.59-4.49a18.13,18.13,0,0,0-6.09,3.45c-2.42,2-3.13,4.82-5.07,7.26a9.88,9.88,0,0,1-5.86,3.79c-4,.68-7.69-1.94-11.36-3.66a22.19,22.19,0,0,0-9.66-2.19c-6.74.14-12.93,4-17.69,8.74s-10.45,9.63-16.9,11.95c-9.18,3.3-19.7.61-27.77-4.88-5.3-3.6-10.08-8.47-16.35-9.76a20.33,20.33,0,0,0-10.85,1,14.16,14.16,0,0,0-5.31,3.05,12.69,12.69,0,0,0-3.34,7.49A23.32,23.32,0,0,0,147.68,456c10.36,15.44,32.85,20.18,50.16,18.29a71.54,71.54,0,0,0,9.85-1.75c10.73-2.74,20.94-8.51,27.5-17.43,1.91-2.58,3.48-5.4,5.21-8.1a24.42,24.42,0,0,1,4.62-5.68c7.85-6.67,17.16,3.19,25.61-1.45A11.76,11.76,0,0,0,274.06,436.9Z" style="fill: rgb(224, 224, 224); transform-origin: 227.532px 444.127px;" id="elso3ys30e99" class="animable"></path><path d="M90.18,418.53c2.6,1.88,4.53,5.05,7.64,6.09,3,1,6.69-.23,8.89-2.27.93-.86,1.76-2,3-2.27a5.59,5.59,0,0,1,2,0c2.93.31,7.74,1.51,10.07-1a14.58,14.58,0,0,0,2.4-4.77c1-2.61,2.57-4.51,5.38-5.24l.83-.19c-3.12-1-7.34,1.89-9.23,4.16a13.17,13.17,0,0,1-2,2.23c-2,1.47-4.71.92-7,.16s-4.88-1.65-7.13-.7c-1.1.47-2,1.34-3.1,1.79-2.73,1.11-4.14-.07-6.34-1.63a12.14,12.14,0,0,0-5.16-2.57,14.64,14.64,0,0,1-3.91-.75c-.67-.3-1.26-.74-1.93-1.06a5.56,5.56,0,0,0-2.66-.55c-1.15.05-2.56.35-3.24-.57a4.94,4.94,0,0,1-.47-1.11c-.47-1.21-2-2.29-3-3.09A10.53,10.53,0,0,0,69,402.63c-1.58,0-3.32.37-4.63-.51.87.59,1.1,1.11,2.18,1.43,1.33.39,2.71.65,4.06,1a6.29,6.29,0,0,1,2.24.86,4.42,4.42,0,0,1,1.49,2.26,7.47,7.47,0,0,1,.29,3.22c-.13.93-.38,2,.27,2.7.87.89,2.36.17,3.6.33,1.75.23,2.74,2.22,4.38,2.88,1.15.47,2.44.24,3.67.33A7,7,0,0,1,90.18,418.53Z" style="fill: rgb(224, 224, 224); transform-origin: 97.38px 413.547px;" id="elx8epg0rv83d" class="animable"></path><path d="M443.51,235l0,.06a8.44,8.44,0,0,0-1.61,6.15c.24,2.09,1.5,3.86,1.44,6a3.29,3.29,0,0,1-.73,2.18c-.34.37-.8.61-1.12,1-.86,1-.41,2.55,0,3.82s.73,2.88-.29,3.75c-2.24,1.91-6.59,1-7.22,4.68-.22,1.31-.33,2.76-1.21,3.68-1.62,1.71-4.71.46-6.28,2.22-.89,1-.82,2.31-1.06,3.58a2.36,2.36,0,0,1-2.33,1.94,3,3,0,0,0,3.12-.71,13.87,13.87,0,0,0,1.53-2.34c1.18-1.82,2.29-.93,3.95-.76a5,5,0,0,0,4.17-1.63c1.14-1.32,1.59-3.25,3.07-4.15s3.31-.42,5-.43a5.78,5.78,0,0,0,4.47-1.86,5.39,5.39,0,0,0,1-3.9,11.12,11.12,0,0,0-1.25-3.91,6.28,6.28,0,0,1-.86-2.48c0-1.48,1.13-2.76,1.28-4.25.17-1.67-1-3.16-2-4.51s-2-3-1.46-4.63c.67-2.06,2.23-3.19,2.22-5.58,0-1.86-1.18-3.46-1.37-5.28-.06-.56,0-1.12,0-1.68a14.32,14.32,0,0,0-.89-4.73,14.53,14.53,0,0,1-.32,5.1,12.58,12.58,0,0,0-.44,1.48,14.39,14.39,0,0,0,.28,4C444.79,233.41,444.41,233.82,443.51,235Z" style="fill: rgb(224, 224, 224); transform-origin: 436.278px 247.73px;" id="elqxpirpoybcd" class="animable"></path></g></g><defs>     <filter id="active" height="200%">         <feMorphology in="SourceAlpha" result="DILATED" operator="dilate" radius="2"></feMorphology>                <feFlood flood-color="#32DFEC" flood-opacity="1" result="PINK"></feFlood>        <feComposite in="PINK" in2="DILATED" operator="in" result="OUTLINE"></feComposite>        <feMerge>            <feMergeNode in="OUTLINE"></feMergeNode>            <feMergeNode in="SourceGraphic"></feMergeNode>        </feMerge>    </filter>    <filter id="hover" height="200%">        <feMorphology in="SourceAlpha" result="DILATED" operator="dilate" radius="2"></feMorphology>                <feFlood flood-color="#ff0000" flood-opacity="0.5" result="PINK"></feFlood>        <feComposite in="PINK" in2="DILATED" operator="in" result="OUTLINE"></feComposite>        <feMerge>            <feMergeNode in="OUTLINE"></feMergeNode>            <feMergeNode in="SourceGraphic"></feMergeNode>        </feMerge>            <feColorMatrix type="matrix" values="0   0   0   0   0                0   1   0   0   0                0   0   0   0   0                0   0   0   1   0 "></feColorMatrix>    </filter></defs></svg>